{"glyphs":{"0":{"ha":893,"x_min":42,"x_max":850,"o":"m 850 519 q 779 250 850 381 q 608 60 710 119 l 515 11 q 473 6 513 11 q 419 0 433 0 q 346 15 400 0 q 125 174 204 58 q 42 472 42 292 q 71 600 42 503 q 260 854 118 760 q 533 940 388 940 q 731 851 643 940 q 846 628 819 764 q 850 519 850 606 m 703 397 q 644 635 703 535 q 490 796 596 717 q 443 817 464 817 q 275 729 333 817 q 219 507 219 649 q 232 410 219 438 q 360 239 276 308 q 532 169 446 169 q 579 171 575 169 q 674 254 640 188 q 703 397 703 314 "},"1":{"ha":363,"x_min":3,"x_max":307,"o":"m 307 85 q 299 68 307 78 q 156 0 181 0 q 136 17 136 0 l 136 763 q 78 735 118 763 q 18 708 39 708 l 7 710 q 3 733 3 718 q 40 774 3 750 l 139 832 q 197 861 158 842 q 243 893 228 883 q 294 913 274 913 q 303 908 300 913 q 307 85 307 828 "},"2":{"ha":647,"x_min":29,"x_max":629,"o":"m 629 129 l 565 7 q 533 -11 556 -10 q 532 -11 533 -11 q 529 -11 531 -11 q 526 -11 528 -11 q 520 -11 524 -11 q 513 -10 517 -11 q 505 -10 510 -10 q 494 -10 500 -10 l 29 3 l 29 11 q 90 93 29 24 l 164 172 q 329 396 278 318 q 406 631 406 510 q 361 751 406 708 q 238 793 317 793 q 128 733 171 793 q 89 611 86 681 q 74 609 86 611 q 57 607 61 607 q 42 631 42 607 q 63 717 42 654 q 171 867 94 808 q 344 925 247 925 q 515 854 447 925 q 583 681 583 786 q 499 450 583 576 q 343 260 446 369 q 261 156 260 169 q 490 147 350 147 q 533 149 499 147 q 576 151 567 151 q 629 129 629 151 "},"3":{"ha":756,"x_min":31,"x_max":713,"o":"m 713 313 q 679 219 713 279 q 525 58 625 121 q 315 -4 428 -4 q 218 8 308 -4 q 106 61 172 15 q 31 150 31 114 q 83 219 31 167 q 150 271 136 271 q 190 235 154 271 q 438 118 306 118 q 532 169 501 118 q 560 279 560 214 q 496 422 560 360 q 353 486 433 486 l 222 486 l 222 499 q 429 760 429 742 q 425 765 429 764 l 351 765 q 249 763 340 765 q 146 761 203 761 q 90 774 90 761 q 131 854 90 785 q 181 919 167 914 q 263 922 192 922 q 603 917 540 922 q 624 896 624 914 l 497 732 q 454 683 478 713 q 413 635 439 663 l 413 629 q 417 621 413 625 q 683 482 601 611 q 713 410 713 433 l 713 313 "},"4":{"ha":865,"x_min":8,"x_max":854,"o":"m 854 474 q 817 397 854 461 q 769 324 785 339 q 690 321 760 324 q 669 321 681 321 q 649 321 657 321 q 633 320 642 321 q 619 319 625 319 q 607 319 613 319 q 598 319 601 319 q 592 317 594 318 q 588 314 589 315 q 586 311 586 313 l 586 79 q 513 33 564 61 q 435 1 453 1 l 422 3 q 418 311 418 14 l 414 315 q 143 319 358 319 q 8 336 8 319 q 208 683 8 356 q 422 1022 408 1011 q 501 1057 432 1032 q 588 1082 569 1082 q 606 1074 606 1082 q 592 1047 606 1065 q 207 496 474 888 q 224 485 207 490 l 288 485 q 414 489 379 485 l 563 578 l 578 578 q 586 574 583 578 l 586 497 l 596 485 l 664 485 q 749 486 711 485 q 833 489 824 489 q 854 474 854 489 "},"5":{"ha":732,"x_min":24,"x_max":724,"o":"m 724 893 q 682 815 724 875 q 626 750 642 754 q 586 749 622 749 q 486 751 575 749 q 386 754 397 754 l 351 754 l 343 744 q 306 674 333 739 q 281 589 281 610 q 311 591 286 589 q 344 593 336 593 q 554 540 472 593 q 651 358 651 481 l 651 326 q 444 25 651 153 q 340 0 403 0 q 54 110 185 0 q 24 150 24 135 q 25 161 24 157 l 131 271 q 151 275 135 275 q 401 122 289 122 q 449 126 439 122 q 508 267 508 153 q 453 385 508 338 q 329 440 389 440 l 169 440 q 124 434 158 440 q 79 428 89 428 q 67 440 67 428 q 83 494 67 458 q 203 792 107 544 q 317 910 256 842 q 422 915 329 915 q 715 910 632 915 q 724 893 724 906 "},"6":{"ha":893,"x_min":42,"x_max":851,"o":"m 851 414 q 781 199 851 300 q 610 47 714 107 q 515 8 554 17 q 421 0 475 0 q 347 13 394 0 q 126 139 207 47 q 42 376 42 233 q 75 558 42 481 q 179 711 104 626 q 347 893 264 810 q 504 1028 417 949 q 560 1071 544 1068 l 706 1092 q 714 1090 711 1093 q 717 1079 717 1086 q 674 1036 717 1067 q 439 843 569 960 q 250 626 272 693 l 254 626 q 289 656 263 632 q 400 729 351 710 q 532 750 451 750 q 731 678 642 750 q 847 500 819 607 q 851 414 851 483 m 704 317 q 699 397 704 369 q 601 558 685 486 q 429 631 521 631 q 326 622 351 631 q 239 552 274 604 q 204 440 204 500 q 310 229 204 322 q 533 135 417 135 q 581 136 576 135 q 675 203 642 149 q 704 317 704 250 "},"7":{"ha":775,"x_min":-10,"x_max":763,"o":"m 763 911 q 597 617 763 901 l 536 521 q 494 422 494 453 l 614 422 q 729 418 703 422 q 746 401 746 417 q 715 324 746 390 q 678 250 686 256 l 399 250 q 374 215 392 250 l 256 -12 q 154 -203 235 -50 q 82 -258 142 -229 q -10 -287 22 -287 q 14 -224 -10 -268 l 138 6 q 260 250 260 236 l 256 256 l 158 256 q 140 272 140 256 q 168 351 140 276 q 204 425 197 425 l 357 425 l 496 668 q 531 744 531 725 q 526 753 531 749 l 446 753 q 274 750 426 753 q 100 749 197 749 q 57 763 57 749 q 107 875 74 803 q 140 924 125 917 q 199 928 142 925 l 247 931 l 742 931 q 763 911 763 931 "},"8":{"ha":803,"x_min":42,"x_max":761,"o":"m 761 271 q 744 217 761 263 q 724 161 729 169 q 597 29 686 85 q 425 -25 510 -25 q 165 40 271 -25 q 42 264 42 118 q 75 400 42 335 q 172 500 110 472 q 200 510 188 504 q 219 525 219 517 q 179 561 219 532 q 131 597 136 592 q 88 726 88 644 q 143 906 88 789 l 207 969 q 447 1033 271 1033 q 507 1021 450 1031 q 596 975 542 1015 q 672 906 651 935 q 703 796 703 865 q 604 593 703 671 l 604 589 q 642 557 604 583 q 685 525 682 528 q 761 271 761 439 m 546 721 q 519 825 546 778 q 443 893 492 872 l 381 918 l 296 918 q 250 888 269 918 q 231 826 231 858 q 418 639 231 692 q 504 622 478 622 q 536 663 524 622 q 546 721 546 692 m 600 254 q 414 479 600 418 q 290 504 338 504 q 271 500 278 504 q 197 347 197 443 q 278 163 197 242 q 465 85 360 85 q 600 254 600 85 "},"9":{"ha":951,"x_min":21,"x_max":913,"o":"m 913 543 q 731 174 913 340 q 654 107 708 156 q 617 81 642 94 q 481 -21 582 63 q 353 -137 469 -29 q 218 -246 279 -206 q 119 -261 200 -247 q 21 -272 56 -272 q 268 -61 24 -246 q 549 165 528 135 l 549 168 q 501 158 531 168 q 453 149 472 149 q 286 174 350 149 q 149 267 215 200 q 61 407 86 331 q 44 533 44 457 q 178 833 44 719 q 492 944 306 944 q 688 904 604 944 q 844 779 763 868 q 913 543 913 706 m 731 478 q 638 732 731 622 q 399 847 539 847 q 214 715 258 847 q 201 664 201 675 l 201 554 q 221 490 201 526 q 253 432 235 460 q 415 308 331 343 q 617 275 497 275 l 663 292 q 731 478 731 351 "}," ":{"ha":531,"x_min":0,"x_max":0,"o":""},"!":{"ha":342,"x_min":8,"x_max":303,"o":"m 297 1017 q 293 975 297 1008 q 289 933 289 942 q 285 372 289 511 q 197 307 267 350 q 107 263 128 263 l 107 751 q 57 788 107 760 q 8 835 8 817 q 281 1038 124 925 q 297 1017 297 1038 m 303 101 q 174 -11 181 -11 l 46 122 l 46 133 q 110 197 57 147 q 174 246 163 246 q 242 182 182 246 q 303 101 303 117 "},"\"":{"ha":586,"x_min":47,"x_max":542,"o":"m 542 938 q 478 583 542 776 l 444 583 q 375 899 375 771 l 375 967 q 376 1036 376 997 l 542 1036 l 542 938 m 215 938 q 150 583 215 786 l 118 583 q 47 900 47 772 l 47 968 q 49 1036 49 999 l 215 1036 l 215 938 "},"#":{"ha":869,"x_min":25,"x_max":843,"o":"m 843 233 l 631 233 l 575 -31 l 461 -31 l 518 233 l 258 233 l 204 -31 l 92 -31 l 147 233 l 25 233 l 25 346 l 171 346 l 217 569 l 25 569 l 25 681 l 239 681 l 296 947 l 408 947 l 350 681 l 608 681 l 665 947 l 778 947 l 721 681 l 843 681 l 843 569 l 699 569 l 653 346 l 843 346 l 843 233 m 588 569 l 329 569 l 282 347 l 542 347 l 588 569 "},"$":{"ha":679,"x_min":22,"x_max":656,"o":"m 656 389 q 390 0 656 182 l 390 -121 l 315 -121 l 315 14 l 22 96 l 100 221 l 315 163 l 315 467 l 153 382 q 57 496 86 449 q 22 638 22 556 q 104 849 22 767 q 315 942 188 932 l 315 1000 l 390 1000 l 390 940 q 586 881 489 924 l 532 756 l 390 797 l 390 540 l 564 631 q 656 389 656 531 m 315 500 l 315 818 l 167 860 q 126 722 126 790 q 279 482 126 586 l 315 500 m 553 307 q 519 438 553 376 q 426 525 485 500 l 390 506 l 390 140 l 483 115 q 553 307 553 206 "},"%":{"ha":1106,"x_min":32,"x_max":1079,"o":"m 1079 271 q 882 0 1079 108 q 742 89 797 26 q 682 240 682 154 q 743 403 682 325 q 882 510 796 469 q 1079 271 1079 425 m 899 946 l 279 -46 l 190 -46 l 810 946 l 899 946 m 428 703 q 231 432 428 540 q 92 521 146 458 q 32 672 32 586 q 92 833 32 760 q 231 942 146 903 q 368 851 315 908 q 428 703 428 788 m 992 221 q 938 346 992 292 q 817 415 890 393 q 769 286 769 368 q 946 92 769 151 q 992 221 992 158 m 342 653 q 288 778 342 722 q 167 847 239 825 q 118 718 118 796 q 294 524 118 583 q 342 653 342 588 "},"&":{"ha":1043,"x_min":21,"x_max":1021,"o":"m 1021 401 q 968 342 1021 371 q 882 314 915 314 q 761 376 817 314 l 663 307 q 750 179 715 210 q 892 125 806 125 q 950 138 914 125 q 989 151 986 151 q 997 142 997 151 q 972 85 997 119 q 797 0 913 0 q 632 64 700 0 q 526 210 590 103 l 225 0 l 21 311 l 350 528 l 219 761 q 201 817 201 792 q 231 871 201 850 q 289 900 243 881 l 600 1031 q 686 953 653 1006 q 719 842 719 901 q 647 692 719 760 q 504 592 618 663 l 647 333 l 851 475 q 982 411 932 411 q 997 413 986 411 q 1011 414 1008 414 l 1017 411 q 1021 401 1021 406 m 600 771 q 560 879 600 824 q 468 935 521 935 q 403 909 431 935 q 375 847 375 883 q 426 729 375 819 l 489 621 q 600 771 600 682 m 511 238 l 365 500 l 178 378 l 344 121 l 511 238 "},"'":{"ha":238,"x_min":35,"x_max":203,"o":"m 203 938 q 138 583 203 786 l 106 583 q 35 900 35 772 l 35 968 q 36 1036 36 999 l 203 1036 l 203 938 "},"(":{"ha":464,"x_min":36,"x_max":450,"o":"m 450 -211 q 335 -331 356 -335 q 169 -239 319 -319 q 36 -158 36 -169 q 40 -140 36 -144 q 49 35 49 18 l 49 221 q 46 411 49 242 q 44 600 44 496 l 44 861 q 203 965 58 878 q 361 1053 347 1053 q 376 1042 376 1053 q 301 985 376 1026 q 226 924 226 943 l 235 -69 l 340 -125 q 442 -186 399 -156 q 450 -211 450 -192 "},")":{"ha":464,"x_min":13,"x_max":426,"o":"m 13 933 q 128 1053 107 1057 q 293 961 143 1039 q 426 881 426 892 q 422 863 426 867 q 414 686 414 704 l 414 501 q 415 311 414 396 q 418 122 418 142 l 418 -139 q 260 -243 403 -156 q 101 -331 117 -331 q 86 -319 86 -331 q 161 -262 86 -304 q 236 -201 236 -221 l 228 792 l 122 846 q 21 908 61 879 q 13 933 13 914 "},"*":{"ha":638,"x_min":18,"x_max":619,"o":"m 619 656 l 510 604 q 333 732 464 660 q 401 519 358 585 l 317 435 l 236 519 q 304 732 283 593 q 208 676 233 693 q 125 604 156 642 l 18 656 l 74 761 q 172 747 115 747 q 294 761 229 747 q 117 889 193 853 l 133 1006 l 251 985 q 317 778 254 908 q 385 985 382 897 l 501 1006 l 519 889 q 342 761 438 858 q 467 747 411 747 q 564 761 535 747 l 619 656 "},"+":{"ha":765,"x_min":7,"x_max":758,"o":"m 758 393 l 444 393 l 444 82 l 319 82 l 319 393 l 7 393 l 7 519 l 319 519 l 319 833 l 444 833 l 444 519 l 758 519 l 758 393 "},",":{"ha":279,"x_min":-129,"x_max":279,"o":"m 278 342 l 178 150 q 140 71 167 122 q 40 -132 69 -47 q -37 -169 21 -150 q -124 -190 -97 -190 q -129 -169 -129 -190 q -6 72 -87 -97 l 90 274 q 111 311 97 286 q 189 338 143 325 q 264 353 247 353 q 275 350 271 353 q 278 342 279 347 "},"-":{"ha":567,"x_min":28,"x_max":538,"o":"m 538 690 q 468 542 508 624 q 436 533 461 533 q 235 535 325 533 q 33 538 54 538 l 28 546 l 28 547 q 54 622 28 556 q 89 703 89 701 q 153 721 103 721 l 215 721 q 533 713 524 721 q 538 690 538 708 m 535 481 q 514 419 535 461 l 485 360 q 468 314 478 344 l 346 314 q 190 317 329 314 q 36 319 54 319 l 36 335 q 97 496 61 410 l 156 496 q 343 492 218 496 q 532 488 469 488 q 535 481 535 488 "},".":{"ha":294,"x_min":18,"x_max":275,"o":"m 275 101 q 146 -11 153 -11 l 18 122 l 18 133 q 82 197 29 147 q 146 246 135 246 q 214 182 154 246 q 275 101 275 117 "},"/":{"ha":635,"x_min":6,"x_max":631,"o":"m 631 704 q 433 290 631 679 l 204 -157 q 175 -214 189 -183 q 150 -268 167 -236 q 83 -310 147 -272 q 14 -347 19 -347 q 6 -335 6 -347 q 75 -179 6 -318 l 158 -12 l 374 451 q 414 551 386 485 q 461 638 443 624 q 542 678 492 658 q 618 713 600 701 l 622 713 q 631 704 631 713 "},":":{"ha":308,"x_min":19,"x_max":288,"o":"m 288 538 q 229 476 288 525 q 161 428 172 428 q 21 549 142 428 q 19 554 21 551 q 79 615 19 564 q 151 669 139 669 q 286 549 169 661 l 288 538 m 283 101 q 154 -11 161 -11 l 26 122 l 26 133 q 90 197 38 147 q 154 246 143 246 q 222 182 163 246 q 283 101 283 117 "},";":{"ha":343,"x_min":-128,"x_max":329,"o":"m 329 536 l 328 531 q 217 426 269 468 l 208 426 q 150 468 197 426 l 92 522 q 67 553 67 544 l 67 560 l 179 671 q 194 672 183 672 q 265 613 204 672 q 329 536 329 554 m 279 342 l 179 150 q 142 71 169 122 q 42 -132 71 -47 q -36 -169 22 -150 q -122 -190 -97 -190 q -128 -169 -128 -190 q 92 274 -74 -75 q 113 311 103 297 q 190 338 144 325 q 265 353 249 353 q 276 350 272 353 q 279 342 281 347 "},"<":{"ha":1068,"x_min":46,"x_max":1015,"o":"m 1015 174 q 1011 -197 1015 -108 q 924 -247 1007 -206 q 829 -290 843 -290 l 829 494 q 733 539 818 506 q 635 572 649 574 l 635 204 q 693 168 649 193 q 746 125 728 147 l 746 119 q 700 58 746 106 q 639 1 699 57 q 618 -3 635 -3 q 518 63 592 17 q 425 110 442 110 q 414 108 418 110 q 304 1 307 1 q 254 19 289 1 q 203 47 206 46 q 117 81 168 60 q 46 126 46 110 q 56 142 46 140 l 56 568 q 215 635 125 594 l 319 718 l 329 718 q 386 688 347 718 l 439 643 l 443 643 q 451 647 450 643 l 451 963 q 528 1008 451 971 q 622 1046 606 1046 q 635 1033 635 1046 l 635 628 q 692 668 651 628 q 747 710 731 710 q 882 660 767 710 q 1011 593 999 610 q 1015 174 1015 485 m 453 497 q 419 478 442 497 q 386 460 401 460 q 315 504 363 460 q 249 561 265 554 l 244 557 q 242 464 244 550 q 240 371 240 422 l 240 225 q 418 142 249 215 l 422 142 l 447 167 q 453 497 453 301 "},"=":{"ha":810,"x_min":39,"x_max":768,"o":"m 768 690 q 668 542 743 647 q 624 533 661 533 q 335 535 464 533 q 47 538 79 538 l 39 546 l 39 547 q 78 622 39 554 q 128 703 124 699 q 218 721 147 721 l 307 721 q 761 713 749 721 q 768 690 768 708 m 764 481 q 735 419 764 461 l 693 360 l 668 314 l 494 314 q 272 317 469 314 q 51 319 75 319 l 51 335 q 71 375 61 354 q 85 406 81 396 q 92 418 90 415 q 139 496 110 457 l 224 496 q 490 492 311 496 q 760 488 672 488 q 764 481 764 488 "},">":{"ha":907,"x_min":42,"x_max":903,"o":"m 903 910 q 886 888 903 903 l 658 681 l 663 676 l 796 676 q 819 681 811 676 l 824 681 q 846 678 828 681 q 869 676 864 676 l 874 672 l 874 668 q 763 522 790 522 q 707 525 757 522 q 650 528 657 528 q 642 524 644 528 l 642 213 l 756 164 q 846 108 846 124 q 844 104 846 106 q 726 -15 746 -15 q 583 40 704 -15 q 447 97 458 97 q 392 43 433 97 q 328 -11 353 -11 q 92 108 239 40 q 42 142 42 131 q 50 167 46 153 q 54 246 54 181 l 54 543 q 118 604 54 579 q 215 639 194 631 q 269 685 219 642 q 325 718 308 718 q 375 685 342 718 q 426 651 408 651 l 456 681 l 456 954 q 540 997 468 967 q 628 1028 611 1028 q 644 1019 644 1028 l 644 956 l 654 954 l 706 999 q 758 1032 744 1032 q 836 979 768 1032 q 903 910 903 928 m 742 813 l 742 817 q 650 892 719 839 l 646 888 q 642 867 642 875 l 642 731 q 649 725 642 725 l 650 726 q 742 813 656 728 m 456 158 l 456 496 q 419 476 443 496 q 383 457 396 457 q 365 469 372 457 l 243 561 q 236 556 236 558 l 236 242 l 240 238 l 435 138 l 439 138 q 456 158 443 142 "},"?":{"ha":389,"x_min":19,"x_max":367,"o":"m 367 861 q 292 661 367 783 l 164 478 l 164 467 l 296 358 q 297 351 297 356 q 276 319 297 333 q 189 242 219 276 l 258 172 q 310 101 310 119 q 181 -11 186 -11 l 53 122 l 53 133 q 168 240 81 165 l 90 294 q 19 358 44 329 q 74 442 22 367 q 171 592 135 528 q 222 749 222 686 q 181 850 222 806 q 106 910 158 875 q 64 944 64 935 q 65 954 64 950 q 181 1061 172 1061 q 239 1032 192 1061 q 367 861 367 953 "},"@":{"ha":1268,"x_min":33,"x_max":1236,"o":"m 1236 113 q 999 -193 1156 -85 q 635 -301 843 -301 q 201 -133 369 -301 q 33 297 33 33 q 219 763 33 581 q 692 944 408 944 q 1040 822 906 944 q 1181 485 1181 694 q 1075 153 1181 292 q 772 0 958 0 q 672 31 711 0 q 633 117 633 61 q 650 215 633 157 q 554 78 594 122 q 415 0 485 0 q 326 49 358 0 q 301 150 301 89 q 381 433 301 294 q 583 638 460 575 q 653 656 618 656 q 750 549 733 656 l 772 629 l 939 636 l 814 208 q 793 101 793 138 q 810 65 793 81 q 847 49 826 49 q 969 103 894 49 q 1097 267 1053 164 q 1142 472 1142 367 q 1019 782 1142 664 q 706 901 896 901 q 271 717 443 901 q 104 272 104 538 q 251 -112 104 35 q 636 -262 400 -262 q 976 -161 825 -262 q 1194 113 1131 -60 l 1236 113 m 718 518 q 668 607 718 607 q 572 501 626 607 q 510 354 539 436 q 476 186 476 254 q 517 125 476 125 q 569 157 533 125 q 674 322 631 214 q 718 518 718 435 "},"A":{"ha":808,"x_min":46,"x_max":786,"o":"m 786 122 q 733 47 786 100 q 656 -4 682 -4 q 469 89 571 35 q 456 110 456 94 l 456 494 q 386 504 456 504 q 240 494 249 504 l 240 68 q 167 35 224 56 q 124 19 144 26 q 94 8 104 13 q 83 4 85 4 l 75 4 q 58 13 58 4 q 54 765 54 89 q 124 801 54 772 q 203 842 192 831 q 117 867 192 857 q 46 894 46 878 q 89 961 46 906 q 143 1028 128 1014 l 151 1028 q 160 1029 156 1029 q 549 933 203 1029 q 638 901 585 924 q 639 557 638 710 q 642 215 642 251 q 722 167 654 201 q 786 122 786 136 m 451 681 l 451 774 l 447 778 q 351 807 419 789 q 261 829 279 829 q 249 825 256 829 q 244 722 244 783 l 244 685 l 249 681 l 451 681 "},"B":{"ha":735,"x_min":7,"x_max":681,"o":"m 681 272 q 676 186 681 207 q 613 140 672 165 q 531 104 533 107 q 469 42 528 103 q 408 -8 422 -8 q 344 11 386 -8 l 85 122 l 85 128 q 83 133 83 131 q 94 165 83 139 q 106 197 106 190 q 100 521 106 311 q 97 846 96 746 q 46 881 86 857 q 7 921 7 903 q 8 925 7 924 l 8 931 l 68 997 q 133 1044 114 1044 q 208 1004 156 1044 q 283 964 261 964 q 390 1057 372 1057 q 508 997 411 1057 q 629 918 594 944 q 643 896 643 908 l 639 883 l 524 782 q 461 732 500 767 l 461 728 l 465 724 q 676 622 607 665 l 681 613 l 681 272 m 471 797 q 383 863 453 817 q 292 914 328 897 l 288 914 l 283 908 l 283 858 l 288 664 l 292 660 q 329 693 314 683 l 471 797 m 499 153 l 494 507 q 406 556 494 518 q 300 593 317 593 q 288 588 288 593 l 288 238 q 488 147 464 147 q 499 153 499 147 "},"C":{"ha":651,"x_min":65,"x_max":644,"o":"m 644 904 q 531 786 642 897 q 510 782 526 782 q 389 826 497 782 q 264 883 297 865 l 263 883 q 251 850 251 883 l 260 250 l 399 211 q 425 197 406 206 q 493 178 443 190 q 594 133 594 156 q 557 68 594 122 q 506 0 519 14 l 483 0 q 388 25 456 0 q 335 44 369 32 q 289 61 301 56 q 110 104 221 85 q 69 126 79 110 l 69 204 q 68 501 71 267 q 65 799 65 782 l 65 846 q 136 897 65 856 q 226 943 197 932 l 283 999 q 344 1036 322 1036 q 510 976 376 1036 q 644 904 644 917 "},"D":{"ha":707,"x_min":60,"x_max":647,"o":"m 647 175 q 588 136 629 157 l 521 103 q 463 43 499 90 q 404 -4 425 -4 q 203 82 394 -4 q 81 136 197 82 l 72 150 q 68 492 68 200 q 66 544 68 503 q 64 597 64 586 q 72 742 64 721 q 233 825 138 771 l 136 864 q 60 911 60 894 q 106 971 60 925 l 165 1028 q 176 1029 168 1029 q 417 938 200 1029 q 638 840 629 847 q 647 610 647 832 l 647 175 m 461 200 l 461 724 q 368 776 461 733 q 254 817 276 819 l 250 813 l 250 617 q 254 256 250 428 q 354 208 294 235 q 449 171 438 171 q 461 200 461 171 "},"E":{"ha":644,"x_min":65,"x_max":642,"o":"m 642 908 l 642 901 q 640 896 640 899 l 588 833 q 535 786 549 786 q 268 896 317 896 l 264 892 q 260 685 260 858 l 264 681 q 593 668 375 678 l 603 660 l 603 656 q 539 503 550 503 l 260 503 l 260 263 q 429 210 260 256 q 599 138 599 164 q 557 58 599 119 q 500 -1 515 -1 q 496 0 497 -1 q 86 122 383 39 q 65 149 65 129 l 72 161 l 72 842 q 208 918 86 851 q 283 985 231 918 q 363 1053 335 1053 q 453 1019 383 1053 l 543 972 q 628 935 569 963 q 642 908 642 929 "},"F":{"ha":631,"x_min":-110,"x_max":635,"o":"m 635 910 l 575 849 q 510 804 528 804 q 419 857 497 804 q 331 910 342 910 q 322 881 322 910 q 326 694 322 831 l 331 688 l 588 688 q 597 669 597 688 q 560 592 597 650 q 504 533 522 533 l 335 533 l 326 525 l 326 -50 q 256 -97 301 -75 q 182 -139 203 -122 q 142 -187 175 -143 q 97 -224 114 -224 q -18 -168 72 -224 q -110 -99 -110 -114 q -64 -24 -110 -82 q -6 35 -19 35 q 72 0 25 35 q 140 -36 121 -36 q 142 168 140 78 q 144 372 144 349 q 140 521 144 414 l 136 528 l 51 528 q 38 544 42 533 q 136 690 38 560 l 136 906 q 179 938 136 919 l 300 994 q 349 1040 314 1001 q 406 1071 378 1071 q 614 943 429 1071 q 635 910 635 928 "},"G":{"ha":710,"x_min":60,"x_max":651,"o":"m 651 169 q 588 124 639 146 q 549 108 575 119 q 510 93 522 97 q 470 61 489 86 q 434 14 451 36 q 399 -8 417 -8 q 331 14 374 -8 l 263 47 q 154 88 190 75 q 72 153 72 124 l 60 858 q 140 913 79 886 q 249 974 203 939 l 343 1053 l 353 1053 q 413 1033 376 1053 q 568 954 454 1010 q 640 892 640 919 q 639 888 640 889 q 579 828 628 874 q 521 782 531 782 q 386 846 500 782 q 264 910 272 910 q 250 900 250 910 l 250 696 q 254 558 250 625 q 258 557 257 558 q 296 614 268 557 q 340 675 325 672 q 553 681 364 681 l 639 681 l 651 668 l 651 169 m 471 432 q 469 499 471 475 l 461 507 q 343 513 418 513 l 300 513 q 263 511 278 513 l 254 503 l 254 446 q 258 246 254 367 q 308 214 271 229 l 457 156 q 465 161 464 156 l 465 200 q 468 315 465 213 q 471 432 471 418 "},"H":{"ha":793,"x_min":65,"x_max":789,"o":"m 789 115 q 746 56 789 104 q 696 0 714 18 l 688 0 q 640 18 675 0 q 615 30 628 24 q 596 39 601 36 l 590 42 q 526 65 556 56 q 471 110 471 90 l 471 158 q 474 318 471 176 q 476 478 476 460 q 469 504 476 493 q 367 543 468 510 q 260 575 265 576 l 256 571 l 251 85 q 165 36 221 69 q 90 0 101 0 q 69 35 69 0 q 72 60 69 40 q 74 85 74 79 l 74 601 q 71 635 74 610 q 68 665 68 660 q 65 819 65 743 l 65 863 q 153 922 79 889 q 251 974 235 957 q 324 1044 307 1026 q 350 1054 333 1054 q 481 1008 363 1054 q 610 957 524 990 q 663 910 663 938 l 658 897 q 633 869 650 888 q 606 842 615 850 q 539 800 561 800 q 500 811 525 800 q 463 829 472 826 l 450 833 q 358 876 433 839 q 265 906 299 906 q 247 889 247 906 q 251 860 247 883 q 256 829 256 836 l 256 597 q 310 658 261 597 q 369 715 358 719 l 633 633 q 663 604 663 625 q 660 419 663 583 q 657 235 657 256 q 667 199 657 203 l 776 144 q 789 115 789 139 "},"I":{"ha":538,"x_min":15,"x_max":493,"o":"m 493 1003 q 491 976 493 997 q 489 949 489 956 l 489 175 q 417 125 489 160 q 324 78 400 118 l 257 10 q 225 1 247 1 q 117 51 206 1 q 19 115 25 103 q 15 135 15 124 q 117 251 15 150 l 125 256 l 129 256 q 297 161 286 161 q 307 208 307 161 q 304 546 307 246 q 303 885 303 696 l 299 889 l 294 889 q 183 817 193 817 q 86 869 160 817 q 15 946 15 924 q 129 1054 15 978 l 138 1054 q 225 999 160 1054 q 307 943 290 943 q 386 999 321 943 q 471 1054 451 1054 q 493 1003 493 1054 "},"J":{"ha":622,"x_min":-7,"x_max":619,"o":"m 619 664 q 564 514 619 631 l 463 514 l 463 -31 q 378 -94 463 -49 q 272 -157 281 -149 l 225 -211 q 175 -254 186 -254 q 140 -236 167 -254 q 40 -181 129 -229 q -7 -140 -7 -156 q 43 -65 -7 -122 q 110 -8 93 -8 q 275 -107 167 -46 l 281 -101 l 281 13 l 272 503 q 206 513 272 511 l 147 513 q 107 538 107 517 l 171 676 l 179 681 l 272 681 l 272 881 l 264 893 q 165 825 183 825 q 78 875 142 825 q 14 946 14 925 q 68 1011 14 958 q 139 1063 124 1063 q 289 951 144 1063 l 292 951 q 364 1003 304 951 q 442 1054 424 1054 q 454 1044 454 1054 l 463 681 l 611 681 q 619 664 619 681 "},"K":{"ha":761,"x_min":68,"x_max":757,"o":"m 757 101 l 664 0 q 631 -4 656 -4 q 557 44 613 11 l 478 89 q 463 101 463 100 l 463 351 q 413 385 456 358 q 376 418 376 406 l 376 426 q 444 482 379 429 q 500 532 500 525 q 418 582 500 538 q 332 626 336 626 q 292 601 321 626 q 250 563 267 582 l 250 446 q 251 286 250 357 q 254 125 254 144 q 253 78 254 85 q 136 21 253 68 q 113 8 133 18 q 89 0 97 0 q 72 13 78 0 q 68 658 68 333 l 68 925 l 72 933 q 229 1014 128 964 l 300 1086 l 335 1086 q 449 1049 340 1086 q 635 964 635 983 q 525 836 635 946 l 503 836 q 483 847 497 839 q 461 858 468 854 q 353 900 439 869 q 254 933 261 933 q 246 913 246 933 q 250 621 246 754 l 254 617 l 258 617 l 432 757 l 442 757 q 539 713 453 757 q 643 656 629 667 q 651 633 651 649 q 533 524 610 597 q 586 493 543 510 q 639 461 628 479 q 647 203 647 219 q 715 163 657 190 q 757 101 757 139 "},"L":{"ha":610,"x_min":28,"x_max":603,"o":"m 603 944 q 553 885 603 933 q 489 829 528 861 l 490 829 l 482 828 q 385 882 469 828 q 279 938 300 938 q 281 660 279 781 q 282 382 282 525 l 282 256 q 240 206 282 231 q 176 174 208 190 l 176 164 l 240 164 q 303 165 268 165 l 475 165 q 553 150 553 165 q 497 17 553 144 l 481 0 q 136 -1 171 0 l 49 -4 q 28 13 28 -4 q 92 131 28 36 l 92 892 q 167 942 108 911 q 251 989 239 979 q 367 1090 272 1008 q 382 1092 371 1092 q 489 1033 392 1092 q 599 960 589 974 q 603 944 603 953 "},"M":{"ha":1235,"x_min":39,"x_max":1229,"o":"m 1229 101 q 1115 -17 1146 -17 q 1001 38 1093 -17 q 911 101 911 92 l 907 838 q 808 886 858 863 q 715 924 728 924 q 704 918 704 924 l 704 758 q 706 600 704 671 q 708 440 708 458 q 706 183 708 342 q 704 89 707 165 q 628 33 703 69 q 526 0 556 0 l 522 8 l 522 297 q 518 838 522 532 q 422 886 513 846 q 317 926 331 926 q 307 892 307 926 q 308 574 307 714 q 311 256 311 288 l 311 89 q 281 54 311 71 l 146 -8 l 142 -8 q 129 0 129 -8 q 125 868 125 97 q 82 901 125 872 q 39 949 39 932 l 40 957 l 69 986 q 108 1015 82 993 q 167 1063 151 1063 q 235 1021 183 1063 q 299 965 278 988 l 311 965 l 417 1071 l 422 1071 q 560 1017 447 1071 q 692 964 674 964 q 700 965 697 964 l 753 1025 q 813 1067 792 1067 q 956 1014 826 1067 q 1089 953 1082 963 q 1093 203 1101 650 q 1171 157 1094 201 q 1229 101 1229 124 "},"N":{"ha":851,"x_min":46,"x_max":846,"o":"m 797 44 q 732 -4 749 -4 q 643 42 717 -4 q 594 73 619 57 q 558 95 568 89 q 546 101 547 101 q 542 172 542 110 l 542 314 q 532 842 542 617 q 432 893 526 849 q 329 936 342 936 q 317 919 317 936 q 321 518 317 786 q 325 118 325 251 q 319 79 325 90 q 247 33 315 67 q 161 0 178 0 q 139 13 144 0 q 138 90 139 42 q 137 223 138 139 q 136 372 136 307 l 135 868 q 85 903 129 875 q 46 944 46 925 q 85 999 46 960 q 139 1050 103 1017 q 172 1063 151 1063 l 308 978 l 321 978 q 376 1035 358 1015 q 436 1075 419 1075 q 565 1024 444 1075 q 700 964 689 971 q 714 949 711 958 q 719 768 715 944 q 724 360 724 575 l 724 221 q 793 168 731 214 q 846 114 846 132 q 797 44 846 96 "},"O":{"ha":707,"x_min":58,"x_max":642,"o":"m 642 106 q 611 85 642 85 q 560 87 600 85 q 507 89 519 89 q 403 -12 406 -12 q 308 19 376 -12 q 215 64 228 60 q 117 101 161 83 q 71 131 94 111 q 68 308 68 183 q 63 575 68 418 q 58 842 58 753 q 85 883 58 869 q 219 956 175 929 q 338 1065 274 1010 l 339 1065 q 408 1040 356 1065 q 481 1006 468 1013 l 565 974 q 636 936 632 949 q 642 900 642 925 l 642 106 m 460 161 l 460 431 q 456 829 460 633 q 353 879 446 839 q 244 918 265 918 q 247 457 244 699 q 253 246 246 400 q 261 238 256 239 q 365 192 321 211 q 428 165 408 174 q 447 156 449 156 q 460 161 460 156 "},"P":{"ha":756,"x_min":14,"x_max":671,"o":"m 671 215 q 649 169 671 188 q 601 143 635 158 q 536 110 575 131 q 478 43 531 106 q 407 -1 442 -1 q 350 26 406 -1 q 286 60 294 57 l 282 60 l 275 56 l 275 -182 q 261 -215 275 -210 q 108 -279 143 -279 q 92 -267 104 -279 l 92 139 q 53 161 92 144 q 14 199 14 179 q 15 203 14 201 l 15 207 q 63 256 47 239 q 92 313 92 289 l 92 800 q 88 906 92 851 q 49 933 85 910 q 19 968 19 950 q 117 1074 19 976 q 140 1083 126 1083 q 269 1003 151 1083 l 274 1003 q 386 1092 371 1092 q 454 1071 413 1092 q 522 1040 504 1044 l 574 1024 q 611 1003 589 1014 q 671 972 671 981 l 671 215 m 489 776 q 485 867 489 838 q 389 915 478 876 q 286 956 297 956 q 278 951 282 956 q 274 426 274 689 l 274 336 q 278 263 274 300 q 325 232 288 246 q 475 164 394 204 q 481 167 478 163 q 485 182 483 172 q 485 219 486 197 l 485 247 q 486 513 485 394 q 489 776 489 749 "},"Q":{"ha":707,"x_min":71,"x_max":714,"o":"m 714 -167 q 667 -236 714 -183 q 606 -292 619 -292 q 543 -272 582 -292 l 485 -240 q 317 -161 429 -218 q 286 -137 286 -147 l 286 -135 q 336 -81 292 -122 q 376 -29 376 -40 q 243 49 376 -17 l 88 122 q 71 144 79 129 l 71 893 q 176 947 71 904 q 265 1014 193 956 q 342 1067 331 1067 q 408 1043 357 1067 q 536 990 457 1021 q 593 967 549 986 q 646 931 646 943 l 646 169 q 594 108 646 133 q 508 60 542 83 q 435 -8 490 47 l 435 -12 q 683 -135 435 -43 q 714 -167 714 -144 m 460 153 l 460 833 q 263 918 296 918 q 253 914 257 918 q 249 864 249 893 q 257 246 249 389 q 290 225 257 239 q 375 183 297 224 q 451 149 443 149 q 460 153 458 149 "},"R":{"ha":824,"x_min":-8,"x_max":813,"o":"m 813 113 q 764 40 813 100 q 704 -17 715 -17 q 589 51 694 -17 l 535 85 q 494 124 497 108 q 490 500 489 183 q 317 593 443 531 l 314 593 l 283 563 l 279 64 q 132 0 225 43 l 118 0 q 101 4 108 0 q 93 31 93 22 l 93 856 q 42 907 93 885 q -8 949 -8 931 l 50 1015 q 110 1071 93 1065 l 114 1071 q 196 1022 126 1071 q 279 972 264 975 l 283 974 q 309 1001 292 982 q 336 1029 326 1019 q 393 1071 378 1071 l 618 953 q 665 914 665 928 l 665 910 q 578 817 665 892 l 469 724 l 469 719 q 568 661 469 707 q 672 597 668 615 q 676 221 686 531 q 753 165 689 203 q 813 113 813 131 m 492 813 q 490 817 492 815 q 383 875 474 828 q 290 922 297 922 q 279 918 283 922 l 279 856 l 283 631 l 288 626 q 401 724 324 654 q 492 813 492 806 "},"S":{"ha":693,"x_min":29,"x_max":625,"o":"m 625 160 q 549 108 625 131 q 454 69 475 86 l 381 -10 l 358 -10 l 168 83 q 88 118 156 89 q 29 172 29 147 q 76 240 29 188 q 138 294 125 294 q 296 221 149 294 l 442 146 l 447 151 l 447 193 l 447 196 q 447 206 447 199 q 447 222 447 213 q 446 247 446 232 q 446 279 446 263 q 445 319 446 296 q 444 365 444 342 q 443 518 442 517 l 444 510 q 431 535 442 526 q 325 599 340 599 q 232 514 321 599 q 215 510 222 510 q 176 531 206 510 l 71 607 q 42 675 42 629 l 42 903 q 114 956 42 917 q 203 1004 172 986 q 293 1081 279 1081 q 397 1038 311 1081 l 549 963 q 567 938 567 954 q 565 928 567 931 l 460 826 q 443 822 450 822 q 343 872 436 822 q 228 924 250 924 l 224 919 l 224 743 q 271 686 224 725 q 333 649 319 649 l 342 650 q 443 739 425 739 q 613 632 451 739 l 625 614 l 625 160 "},"T":{"ha":636,"x_min":-26,"x_max":629,"o":"m 629 1049 q 600 975 629 1039 q 557 907 569 907 l 383 907 q 358 903 371 907 l 354 899 l 354 260 q 476 201 354 251 q 600 128 600 151 q 560 57 600 117 q 513 -3 521 -1 q 499 -4 508 -4 q 442 15 483 -4 q 242 97 386 43 q 168 132 168 125 l 168 204 q 165 478 168 236 q 164 753 164 600 l 164 803 q 221 846 167 815 q 294 894 286 883 l 290 899 q 190 897 261 897 q 63 899 110 897 q 11 900 28 899 q -26 924 -26 904 q 10 996 -26 935 q 58 1067 46 1054 l 94 1067 q 289 1068 136 1065 q 483 1072 426 1072 q 621 1067 608 1072 q 629 1049 629 1064 "},"U":{"ha":807,"x_min":13,"x_max":790,"o":"m 790 106 q 739 35 790 86 q 676 -18 689 -18 q 582 36 664 -18 q 489 92 504 92 q 428 36 461 92 q 369 -19 394 -19 q 246 42 368 -19 l 108 113 q 93 131 93 124 l 93 853 q 53 899 93 874 q 13 943 13 924 q 58 1006 13 958 l 118 1064 l 139 1064 q 276 954 243 1004 l 276 235 q 471 133 467 133 q 494 160 494 133 l 494 724 q 490 874 494 803 l 446 910 q 414 949 414 938 q 418 967 414 963 l 519 1064 q 544 1068 524 1068 l 614 1017 q 678 958 654 988 l 678 197 q 733 157 678 192 q 790 106 790 121 "},"V":{"ha":729,"x_min":11,"x_max":667,"o":"m 667 190 q 593 140 667 176 q 501 97 503 99 q 404 -21 469 53 l 394 -21 q 218 60 379 -21 q 53 149 56 142 l 53 163 q 64 203 53 171 q 75 246 75 235 l 75 893 q 43 919 75 899 q 11 956 11 940 q 15 974 11 967 q 71 1029 24 985 q 129 1075 119 1075 q 200 1033 147 1075 q 269 982 256 986 l 271 981 q 363 1071 272 981 q 400 1075 367 1075 l 578 990 l 628 974 q 663 939 661 961 q 667 190 667 811 m 481 144 l 481 838 q 278 935 300 935 q 261 922 261 935 l 261 249 q 469 139 467 139 q 481 144 481 139 "},"W":{"ha":1143,"x_min":19,"x_max":1078,"o":"m 1078 731 l 1069 185 q 921 104 1069 165 l 915 97 q 897 73 910 90 q 871 39 883 56 q 813 -10 833 -10 q 732 13 782 -10 l 654 50 l 644 53 q 609 65 635 57 q 557 82 583 74 q 485 117 485 104 l 485 561 q 489 735 485 571 q 492 765 489 740 q 494 799 494 790 q 486 840 494 832 q 447 858 454 854 q 283 935 296 935 q 271 931 275 935 l 271 83 q 239 54 271 67 l 165 18 q 92 -6 111 -6 q 83 38 83 4 q 85 61 83 43 q 88 83 88 79 l 88 850 q 67 904 88 881 l 19 943 l 19 949 q 61 1004 19 964 q 89 1030 69 1013 q 117 1057 108 1047 q 146 1069 129 1069 l 285 975 q 340 1032 322 1013 q 399 1074 383 1074 q 526 1015 406 1074 q 663 951 658 953 l 667 951 q 726 1004 692 967 l 782 1065 q 793 1067 786 1067 q 814 1058 797 1067 q 832 1049 831 1049 q 922 1017 856 1040 q 1019 983 988 994 q 1078 947 1061 968 l 1078 731 m 892 160 l 892 842 q 875 854 886 847 q 790 883 849 861 l 742 904 q 688 918 710 918 q 675 913 676 918 q 667 650 667 888 l 667 451 q 675 232 667 282 l 786 189 l 835 164 q 881 147 869 147 q 892 160 892 147 "},"X":{"ha":758,"x_min":4,"x_max":682,"o":"m 682 614 q 674 -108 682 58 q 576 -160 667 -117 q 407 -303 525 -185 l 397 -303 q 343 -283 378 -303 l 293 -251 q 163 -185 238 -225 q 143 -157 143 -174 q 144 -150 143 -153 l 144 -142 q 256 -28 228 -28 q 485 -156 475 -156 q 492 -149 489 -156 q 494 106 494 -140 q 438 53 478 106 q 386 1 399 1 q 365 6 372 1 q 158 113 244 72 q 90 158 90 143 l 90 885 q 40 921 82 893 q 4 957 4 944 q 6 965 4 963 l 111 1075 q 128 1076 115 1076 q 210 1029 140 1076 q 281 967 281 981 q 278 778 281 947 q 276 592 276 694 l 276 264 q 324 231 289 247 q 411 183 342 221 q 488 144 483 144 q 496 150 496 144 l 496 889 q 449 925 492 896 q 415 965 415 947 q 525 1079 415 974 q 535 1081 529 1081 q 610 1038 553 1081 q 682 978 664 999 l 682 614 "},"Y":{"ha":776,"x_min":13,"x_max":749,"o":"m 749 872 q 635 757 749 854 l 613 757 q 546 832 589 775 q 478 914 486 906 l 474 910 l 474 694 l 478 690 q 719 686 682 681 q 724 672 724 681 q 692 592 724 658 q 647 517 661 528 l 646 517 q 586 518 613 517 q 526 521 533 521 q 469 513 469 521 l 469 279 q 503 239 469 253 q 524 233 504 239 q 558 221 544 226 q 626 186 574 213 q 651 176 631 185 q 683 164 672 168 q 724 129 724 144 l 724 122 q 618 0 635 0 q 482 53 600 0 q 346 107 367 107 q 276 47 324 107 q 215 -12 229 -12 q 103 43 193 -12 q 13 114 13 100 q 64 188 28 142 q 121 246 108 246 q 186 210 133 246 q 263 174 239 174 q 267 439 267 271 l 267 513 l 263 517 q 106 521 208 521 q 85 539 85 521 q 117 622 85 551 q 146 682 139 672 q 181 694 156 694 l 214 693 q 267 692 247 692 l 267 842 q 168 890 267 849 q 71 950 71 933 q 119 1019 71 963 q 182 1083 164 1069 l 190 1083 q 271 1043 239 1056 q 304 1032 276 1042 l 449 961 q 453 960 450 960 q 517 1017 464 960 q 579 1075 569 1072 l 582 1075 q 596 1067 589 1075 q 635 1015 608 1047 q 744 885 674 974 q 749 872 749 878 "},"Z":{"ha":413,"x_min":-115,"x_max":371,"o":"m 371 956 q 368 829 371 943 q 367 701 367 772 q 301 654 363 690 q 222 604 233 614 l 222 600 q 297 564 229 593 q 367 528 367 536 l 367 17 q 365 -22 367 8 q 363 -60 363 -51 q 344 -117 363 -100 q 289 -149 336 -125 q 210 -194 258 -164 l 113 -292 l 83 -292 q -115 -171 -115 -189 q -61 -101 -115 -158 q 7 -46 -10 -46 q 172 -136 171 -136 q 181 -131 181 -136 l 181 435 q 117 465 181 440 q 53 511 53 492 q 58 524 53 519 q 185 617 101 549 l 185 871 q 129 908 185 878 q 75 964 75 939 q 79 981 75 975 q 139 1036 86 990 q 197 1078 189 1078 q 268 1036 200 1078 q 350 985 335 996 q 371 956 371 969 "},"[":{"ha":333,"x_min":50,"x_max":331,"o":"m 331 -235 l 50 -235 l 50 1006 l 331 1006 l 331 972 l 178 972 l 178 -203 l 331 -203 l 331 -235 "},"\\":{"ha":483,"x_min":56,"x_max":546,"o":"m 546 935 l 544 929 l 436 817 l 428 817 q 344 858 407 817 q 261 900 282 900 q 250 863 253 900 q 242 499 246 801 l 233 -222 q 221 -235 228 -231 q 100 -289 179 -251 q 69 -301 76 -301 q 56 -293 56 -301 l 56 69 q 68 908 56 581 q 158 953 89 922 q 238 992 226 983 l 317 1061 l 333 1061 q 546 935 546 965 "},"]":{"ha":335,"x_min":3,"x_max":283,"o":"m 283 -235 l 3 -235 l 3 -203 l 156 -203 l 156 972 l 3 972 l 3 1006 l 283 1006 l 283 -235 "},"^":{"ha":649,"x_min":18,"x_max":629,"o":"m 629 453 l 521 453 l 321 801 l 122 453 l 18 453 l 299 942 l 354 942 l 629 453 "},"_":{"ha":815,"x_min":50,"x_max":764,"o":"m 764 -174 l 50 -174 l 50 -104 l 764 -104 l 764 -174 "},"`":{"ha":256,"x_min":4,"x_max":224,"o":"m 224 772 l 186 772 l 4 1026 l 161 1026 l 224 772 "},"a":{"ha":751,"x_min":32,"x_max":724,"o":"m 724 106 l 608 -7 l 600 -8 q 510 49 593 -6 q 421 93 440 93 q 322 1 411 93 l 315 1 q 263 21 299 1 q 65 125 144 89 q 32 150 32 139 q 54 179 33 151 l 54 565 q 218 639 101 583 l 310 714 q 342 735 335 735 q 483 667 357 735 q 628 585 613 600 l 628 183 q 658 160 628 178 q 676 151 667 156 q 689 143 685 146 q 694 140 693 140 q 724 113 707 131 l 724 106 m 446 158 l 446 490 l 438 499 q 338 553 436 500 q 244 594 263 594 l 239 589 q 235 389 235 525 l 235 238 q 306 200 236 236 l 417 142 l 425 142 q 446 158 446 142 "},"b":{"ha":700,"x_min":58,"x_max":642,"o":"m 642 254 q 633 167 642 183 l 583 142 q 493 99 497 103 q 425 22 464 81 q 392 0 411 0 q 313 21 375 0 q 110 90 236 49 q 58 117 58 104 l 58 942 q 126 997 58 964 q 217 1029 193 1029 l 233 1029 q 242 1017 242 1022 l 242 908 q 240 760 242 826 q 239 610 239 693 q 299 654 261 610 q 363 700 338 700 l 638 575 q 642 254 642 529 m 463 467 l 450 479 l 263 563 l 238 563 l 238 238 l 250 225 l 449 154 q 456 160 453 153 q 460 185 458 168 q 460 200 460 193 q 461 212 461 207 q 462 220 461 217 q 463 225 463 224 l 463 467 "},"c":{"ha":531,"x_min":33,"x_max":528,"o":"m 528 558 q 397 458 428 458 q 250 583 375 458 l 246 583 l 242 579 q 238 256 238 533 q 347 204 282 231 q 408 181 379 192 q 448 165 436 169 q 461 160 460 160 q 475 140 475 154 q 432 61 475 121 q 372 3 389 3 q 143 99 297 39 q 128 103 139 100 q 103 110 117 106 q 78 118 90 114 q 33 147 33 133 q 56 181 33 167 l 56 517 q 51 529 51 522 q 60 583 51 572 l 225 653 q 279 699 238 658 q 342 732 314 732 q 528 571 367 732 l 528 558 "},"d":{"ha":681,"x_min":19,"x_max":624,"o":"m 624 688 q 619 157 624 397 q 463 103 614 151 q 404 46 442 96 q 339 -4 364 -4 q 257 26 318 -4 q 176 67 217 46 q 106 93 153 76 q 53 132 53 117 l 53 560 q 79 638 53 619 l 160 675 q 214 704 167 681 q 281 736 265 726 l 281 740 q 160 826 231 781 l 36 908 q 19 931 19 919 q 81 993 19 943 q 160 1043 143 1043 q 536 778 239 1001 q 590 740 558 772 q 624 688 624 708 m 446 451 q 443 535 446 460 q 442 621 442 572 q 382 672 431 635 q 319 708 333 708 q 269 689 306 708 q 235 658 235 671 l 235 357 q 239 236 235 272 q 328 192 250 225 q 429 144 404 160 l 431 144 q 442 165 442 144 q 443 275 442 226 q 446 385 446 372 l 446 451 "},"e":{"ha":567,"x_min":56,"x_max":536,"o":"m 536 531 q 490 481 536 514 q 242 299 407 424 l 242 236 q 490 136 332 203 q 508 117 508 128 q 439 21 508 115 q 403 -4 419 -4 q 236 50 383 -4 q 56 119 125 90 l 56 557 l 225 633 q 285 681 233 638 q 338 717 329 719 q 392 675 346 714 q 536 531 536 551 m 367 449 q 250 556 367 458 l 246 551 q 242 531 242 539 l 242 357 q 249 351 242 349 l 250 353 q 315 399 267 360 q 367 449 367 440 "},"f":{"ha":556,"x_min":8,"x_max":589,"o":"m 589 925 l 588 919 l 485 815 l 464 807 l 461 807 q 375 860 444 807 q 299 911 306 913 l 294 907 q 289 851 289 889 q 293 765 289 836 q 299 683 294 688 l 301 676 l 521 676 q 526 663 526 676 q 499 601 526 649 q 456 543 474 558 q 426 535 444 535 q 360 536 389 535 q 294 539 301 539 l 290 535 q 286 142 286 403 q 283 -36 286 122 q 282 -214 282 -115 q 196 -261 263 -228 q 115 -297 126 -297 l 104 -285 q 103 -201 103 -279 q 106 64 103 -172 q 108 331 108 300 q 107 535 108 529 l 104 539 q 78 540 96 539 q 50 542 60 542 q 8 560 8 546 q 96 679 8 563 q 110 700 97 688 l 110 888 l 278 968 l 381 1060 l 388 1060 q 496 997 403 1060 q 589 925 589 935 "},"g":{"ha":686,"x_min":58,"x_max":629,"o":"m 629 286 q 621 -272 629 -69 l 613 -283 l 443 -283 l 389 -331 l 368 -331 q 256 -262 339 -308 q 138 -194 168 -217 q 128 -178 128 -189 q 244 -53 128 -172 l 249 -53 l 435 -165 q 440 -153 439 -165 q 447 33 447 -111 l 447 75 l 443 79 l 439 79 q 335 -21 339 -21 q 190 51 272 8 q 58 125 67 114 l 58 531 q 140 569 58 538 q 246 618 218 599 q 259 630 249 621 q 290 658 269 639 q 332 696 311 676 l 356 696 l 542 625 q 565 618 544 624 q 592 610 585 613 q 610 600 599 607 q 629 583 622 593 l 629 286 m 451 260 l 451 481 q 315 533 447 482 l 250 556 l 244 550 l 244 232 q 433 128 244 221 q 451 260 451 128 "},"h":{"ha":686,"x_min":24,"x_max":629,"o":"m 629 593 q 625 163 629 493 q 617 -193 619 -189 q 539 -239 606 -208 l 447 -281 l 443 -281 q 435 -272 435 -281 q 443 -251 435 -264 l 443 -222 q 440 -164 443 -217 q 439 -106 439 -137 q 441 -79 439 -100 q 443 -53 443 -58 l 443 481 q 340 529 422 494 q 249 576 263 563 l 244 576 q 236 572 240 576 q 232 365 232 469 l 232 200 q 282 161 242 189 q 343 129 325 135 q 344 119 344 126 q 236 -15 344 93 l 228 -15 q 140 39 208 1 q 47 86 74 78 q 24 106 24 97 q 37 128 24 111 q 50 150 50 146 q 51 560 50 378 q 54 969 54 924 q 138 1015 64 982 q 228 1049 211 1049 q 240 1036 233 1049 l 240 1033 q 238 890 240 1018 q 235 747 235 763 q 236 689 235 715 l 236 631 l 240 626 l 335 721 q 351 725 347 728 q 501 654 401 700 q 625 601 542 642 q 629 593 629 600 "},"i":{"ha":340,"x_min":29,"x_max":328,"o":"m 290 888 q 254 844 290 876 q 163 772 213 808 l 154 772 q 29 890 29 868 q 89 951 29 900 q 158 1004 150 1004 q 229 949 169 1004 q 290 888 290 892 m 328 122 q 281 51 328 103 q 215 0 233 0 q 119 49 197 0 q 43 110 43 96 q 58 132 43 114 q 72 153 72 150 l 72 557 l 31 603 q 29 617 29 607 q 92 672 29 625 q 163 722 154 722 q 222 675 175 722 q 271 618 271 629 q 254 586 271 597 l 254 182 q 297 156 278 168 q 328 122 328 138 "},"j":{"ha":317,"x_min":8,"x_max":279,"o":"m 279 888 l 278 882 l 228 832 q 190 806 215 832 q 151 781 167 781 q 79 831 138 781 q 21 890 21 881 q 81 951 21 897 q 151 1006 142 1006 q 201 967 163 1006 l 249 919 q 279 888 279 894 m 275 610 q 256 575 275 590 l 256 -171 q 164 -231 243 -183 q 79 -276 86 -276 q 67 -261 67 -276 q 71 35 67 -164 q 75 331 75 233 l 75 538 q 36 571 68 547 q 8 604 8 592 q 133 715 54 658 q 139 717 135 717 q 200 679 147 717 q 265 629 247 647 q 275 610 275 619 "},"k":{"ha":500,"x_min":4,"x_max":539,"o":"m 539 910 q 436 806 539 896 l 315 704 q 307 692 306 703 l 311 688 l 358 688 q 472 683 417 689 l 472 678 q 407 544 472 664 l 290 544 l 290 215 q 354 174 290 208 q 419 122 419 138 q 369 51 419 108 q 304 -4 319 -4 q 214 44 296 -4 q 113 104 158 76 q 86 126 86 117 q 104 161 86 139 q 106 243 104 207 q 108 326 108 318 l 108 543 l 104 547 q 13 556 64 553 q 4 565 4 556 q 110 692 4 572 l 110 961 q 279 1040 244 1040 q 292 1019 292 1040 q 292 1032 292 1028 l 290 990 q 299 969 290 975 q 394 1053 331 999 q 400 1054 396 1054 q 428 1036 414 1054 q 535 925 465 1000 q 539 910 539 919 m 386 813 l 299 900 l 294 900 l 294 742 l 299 742 l 307 746 q 386 813 336 767 "},"l":{"ha":369,"x_min":35,"x_max":358,"o":"m 315 58 q 254 -1 282 21 q 249 -3 251 -1 l 242 -3 q 229 -1 233 -3 q 119 69 215 11 q 35 131 35 121 q 51 164 35 142 q 53 206 51 189 q 53 223 53 214 q 55 238 54 232 q 56 246 56 243 q 60 974 63 421 q 140 1017 69 986 q 229 1049 215 1049 q 242 1044 236 1049 l 242 918 q 240 694 242 793 q 238 471 238 492 l 238 226 q 306 178 243 218 q 358 125 358 144 q 315 58 358 106 "},"m":{"ha":1042,"x_min":11,"x_max":1031,"o":"m 1031 117 q 978 47 1031 100 q 910 -4 926 -4 q 821 44 903 -4 q 732 104 736 96 q 728 124 728 111 l 753 157 q 753 185 753 167 q 755 236 754 203 q 756 299 756 269 q 757 442 757 358 l 757 531 q 686 569 746 547 q 604 593 624 593 q 600 247 600 422 l 600 169 l 636 146 q 658 115 658 132 q 550 0 658 111 q 533 -4 546 -4 q 393 92 524 -1 q 375 111 383 93 q 396 143 375 125 q 417 169 417 164 l 417 531 q 351 563 417 542 q 264 585 289 585 q 247 475 247 575 l 247 174 q 275 153 253 168 q 293 126 293 139 q 206 13 293 111 q 179 0 194 0 q 107 35 172 0 q 28 79 33 75 q 19 96 19 86 q 40 129 19 111 q 61 165 61 147 q 63 278 61 228 q 65 389 65 378 l 65 564 q 51 574 61 567 q 35 584 40 581 q 24 594 31 588 q 14 607 17 600 q 11 622 11 614 l 68 682 q 132 733 103 714 l 136 733 q 208 683 158 724 q 264 646 254 646 q 360 733 272 646 l 385 733 q 600 646 594 646 q 650 683 611 646 q 699 733 690 724 l 707 733 q 794 704 715 733 l 878 675 q 942 638 942 650 l 942 186 q 993 153 960 175 q 1031 117 1031 131 "},"n":{"ha":738,"x_min":8,"x_max":726,"o":"m 726 128 q 725 124 726 125 q 617 4 697 89 l 611 4 l 426 100 q 418 113 417 106 l 447 149 l 447 531 q 381 564 447 539 q 299 593 347 578 q 249 604 275 596 q 240 593 240 600 l 240 194 q 271 150 240 172 q 303 118 303 126 q 258 60 303 111 q 203 0 221 17 q 182 -4 199 -4 q 104 49 172 -4 q 25 113 39 99 l 25 124 l 58 165 l 58 497 q 56 558 58 550 q 8 608 54 563 l 8 625 q 71 683 19 639 q 132 729 122 729 q 192 692 147 729 q 225 660 203 681 q 249 639 247 640 l 357 742 l 381 742 l 547 679 q 635 631 635 646 q 629 617 635 622 l 629 199 q 686 167 660 181 q 726 128 726 143 "},"o":{"ha":689,"x_min":56,"x_max":631,"o":"m 631 606 q 629 306 631 399 q 626 175 629 289 q 546 121 624 154 q 443 75 449 81 q 404 28 438 71 q 361 -7 379 -7 l 207 65 q 56 146 94 119 l 56 556 q 139 594 56 561 q 244 647 222 628 l 329 717 q 351 725 340 725 q 407 711 378 725 l 597 646 q 631 606 631 636 m 449 163 l 449 518 q 246 593 258 593 q 238 589 239 593 l 238 258 q 331 201 238 249 q 435 154 424 154 q 449 163 449 154 "},"p":{"ha":699,"x_min":8,"x_max":642,"o":"m 642 167 q 571 107 642 133 q 460 38 544 99 q 381 -21 378 -21 q 319 4 364 -21 q 261 29 275 29 q 254 25 256 29 l 254 -231 q 158 -287 215 -258 q 60 -324 86 -324 q 71 -306 60 -312 l 67 121 l 25 142 q 24 151 26 146 l 25 163 q 71 211 38 175 l 71 518 q 33 547 69 519 q 8 581 8 568 q 17 597 8 589 q 113 685 31 611 q 140 697 128 697 q 144 696 143 697 l 264 596 q 376 696 272 596 q 394 697 379 700 q 444 672 410 694 l 497 638 q 642 560 561 607 l 642 167 m 456 146 l 456 468 q 361 525 443 483 q 265 560 283 564 l 261 556 q 257 318 257 436 l 257 240 q 315 204 264 221 l 328 200 l 443 142 l 447 142 q 456 146 453 142 "},"q":{"ha":681,"x_min":57,"x_max":619,"o":"m 619 -219 q 561 -251 619 -228 q 454 -299 518 -267 q 414 -314 426 -314 q 429 -285 414 -292 q 439 -111 439 -193 l 439 -15 q 438 79 438 26 l 429 79 q 339 -17 424 76 l 332 -17 q 256 19 321 -17 q 168 67 193 54 q 113 94 164 75 q 57 125 64 114 l 57 304 q 61 526 57 479 q 139 564 67 539 q 226 600 218 592 l 283 651 q 339 692 328 692 l 458 638 l 544 604 q 619 558 606 579 l 619 -219 m 438 138 l 438 460 q 349 503 433 467 q 253 539 265 539 q 243 535 247 539 q 239 399 239 467 l 239 240 q 276 215 251 231 l 433 133 l 438 138 "},"r":{"ha":574,"x_min":8,"x_max":547,"o":"m 547 489 q 503 442 547 482 l 446 393 q 414 376 428 376 q 342 485 403 376 q 269 593 281 593 l 253 576 q 250 503 253 569 q 249 426 249 469 q 250 332 249 374 q 253 240 253 249 q 363 190 283 221 l 481 149 q 489 147 482 149 q 498 144 496 146 q 505 141 500 143 q 512 137 510 139 q 516 131 514 135 q 518 121 518 126 q 471 50 518 107 q 411 -8 425 -8 q 265 40 390 -8 q 100 104 121 97 q 42 135 42 124 q 67 178 42 147 l 67 568 q 38 590 67 574 q 8 615 8 607 q 142 729 8 631 q 147 731 143 731 q 176 718 161 731 l 199 696 q 276 642 235 665 l 278 643 q 340 690 293 650 q 400 731 388 731 q 411 725 410 731 l 547 493 l 547 489 "},"s":{"ha":644,"x_min":43,"x_max":590,"o":"m 590 383 q 588 265 590 371 q 586 146 586 213 q 508 108 572 128 q 433 81 447 92 q 394 29 429 78 q 347 -7 367 -7 q 235 22 328 -7 l 114 60 q 43 85 86 68 l 43 101 l 117 203 q 149 229 135 229 q 288 193 175 229 q 400 158 396 157 l 404 163 l 404 304 q 382 331 404 317 q 346 346 360 346 l 246 246 q 236 244 242 244 q 56 333 208 244 l 56 565 q 143 601 86 585 q 233 632 217 624 q 269 675 236 633 q 317 711 297 711 l 479 644 q 533 600 533 622 q 481 533 533 590 q 417 478 429 478 q 338 511 406 478 q 246 553 253 550 l 242 553 l 238 549 l 238 457 q 242 436 238 449 q 338 386 281 408 l 342 388 q 457 486 347 393 l 461 486 q 465 488 463 488 q 533 444 478 488 q 590 388 590 403 l 590 383 "},"t":{"ha":471,"x_min":11,"x_max":476,"o":"m 476 672 q 438 604 476 661 q 403 556 411 564 q 371 544 392 544 q 356 545 369 544 q 323 547 342 546 q 290 547 304 547 l 286 543 l 286 497 q 290 215 286 344 q 378 171 300 204 q 447 122 447 142 q 357 -8 447 103 q 340 -12 344 -14 l 207 49 q 86 122 86 106 q 97 143 86 128 q 108 161 108 158 l 108 543 q 50 551 108 550 q 11 567 11 553 q 106 700 11 581 l 106 819 q 274 907 250 907 q 286 899 286 907 l 286 696 q 319 688 286 688 q 472 683 401 688 q 476 672 476 679 "},"u":{"ha":790,"x_min":8,"x_max":778,"o":"m 778 128 l 776 122 l 685 1 q 668 -3 678 -3 q 571 43 646 -3 q 471 89 496 89 q 428 47 465 89 l 383 -3 q 378 -4 381 -3 l 371 -4 q 160 72 364 -4 q 35 138 35 118 q 49 163 35 143 q 64 188 64 183 q 68 240 68 203 l 68 400 q 65 471 68 407 q 64 544 64 503 q 31 568 58 551 q 8 599 8 581 l 10 607 l 71 669 q 132 718 119 718 q 221 656 140 718 q 246 641 233 653 q 258 619 258 629 q 254 606 258 617 q 250 590 250 594 l 250 233 q 457 146 329 197 l 461 146 l 474 158 l 474 536 q 419 582 472 539 q 415 599 414 594 l 419 607 q 549 711 517 711 q 611 663 554 711 q 669 607 669 615 q 656 574 669 592 l 656 208 l 668 196 q 731 165 699 183 q 778 128 778 139 "},"v":{"ha":683,"x_min":1,"x_max":631,"o":"m 631 551 q 626 529 631 538 l 626 161 q 549 117 626 144 q 449 74 469 89 q 369 -4 444 71 l 365 -4 q 217 54 346 -4 l 60 128 q 54 142 54 129 q 63 167 54 147 q 72 190 72 186 l 72 514 q 36 540 72 521 q 1 572 1 561 q 51 633 1 588 l 117 692 l 138 692 q 258 596 178 658 l 267 596 q 365 692 326 646 l 376 692 q 610 575 403 692 q 631 551 631 564 m 449 149 l 449 464 q 300 540 372 501 q 271 551 282 551 q 254 529 253 551 q 258 490 258 497 q 256 454 258 482 q 254 419 254 426 l 254 368 q 263 351 263 360 q 254 335 263 344 l 254 232 q 349 186 256 228 q 444 144 442 144 l 449 149 "},"w":{"ha":1004,"x_min":3,"x_max":951,"o":"m 951 163 q 879 125 944 151 q 794 89 810 97 q 747 33 790 86 q 694 -7 715 -7 q 400 142 686 -7 l 400 150 q 408 189 400 157 q 417 238 417 219 l 417 357 q 400 503 417 492 q 263 574 289 574 q 251 569 256 574 l 251 192 q 294 156 251 178 q 339 121 339 132 q 294 63 339 107 l 235 6 q 214 -3 226 -3 q 117 57 201 6 q 39 119 39 107 l 40 125 l 74 158 l 74 463 q 69 532 74 499 l 44 557 q 18 574 42 560 q 3 597 3 582 q 67 663 32 632 q 135 710 118 710 q 247 626 175 685 l 256 622 l 260 622 l 268 626 q 363 714 333 692 l 367 714 q 475 660 381 714 q 588 606 569 606 q 642 653 603 606 q 703 701 682 701 q 815 657 724 701 l 931 597 q 947 582 940 593 q 951 418 951 500 l 951 163 m 769 163 l 769 461 q 740 499 769 483 l 615 561 l 611 561 q 603 557 607 561 q 599 279 599 524 q 624 233 599 247 q 761 158 674 204 l 765 158 l 769 163 "},"x":{"ha":593,"x_min":-36,"x_max":561,"o":"m 561 469 q 500 407 561 456 q 426 360 440 360 q 358 463 417 360 q 278 588 296 574 l 274 583 q 269 517 269 539 l 269 264 q 404 200 279 250 q 522 139 522 153 q 432 0 522 131 q 422 -1 429 -1 q 381 13 404 -1 q 243 74 328 40 q 104 132 140 113 l 100 132 q 71 60 71 132 q 121 -12 71 13 q 382 -129 201 -44 l 382 -146 q 335 -221 382 -149 q 283 -278 299 -278 q 133 -222 246 -278 q -15 -137 31 -172 q -36 -74 -36 -89 q 4 53 -36 -17 q 83 161 19 81 l 83 550 q 60 568 83 556 q 38 597 38 582 q 85 661 38 615 l 150 719 q 158 721 153 721 q 215 683 174 721 q 265 632 247 656 l 278 624 l 282 624 l 404 719 q 488 604 414 719 q 561 469 561 489 "},"y":{"ha":697,"x_min":3,"x_max":657,"o":"m 657 582 q 640 557 650 575 l 632 -171 q 463 -275 632 -183 l 458 -275 l 450 -267 l 450 -250 q 451 -125 450 -181 q 454 -1 454 -17 l 454 0 q 454 2 454 0 q 454 7 454 4 q 455 15 454 10 q 456 25 456 19 q 456 61 458 49 q 447 78 453 81 l 367 -6 q 353 -7 364 -7 q 239 42 343 -7 q 172 73 206 57 q 126 95 139 89 q 111 101 113 101 q 76 114 99 106 q 51 136 51 125 q 58 152 51 142 q 65 164 65 163 l 65 172 q 67 236 65 207 q 69 303 69 294 l 69 528 q 33 557 65 533 q 3 590 3 579 q 67 656 8 597 q 129 707 118 707 q 264 599 156 707 l 264 593 q 251 561 264 581 l 251 235 q 268 221 251 228 q 438 143 329 200 l 454 143 l 454 532 q 400 590 454 536 l 400 599 q 456 660 400 608 q 526 711 511 711 q 599 651 543 711 q 657 582 657 592 "},"z":{"ha":392,"x_min":6,"x_max":336,"o":"m 336 140 q 332 -31 336 100 q 332 -201 331 -136 l 324 -212 l 257 -242 l 210 -272 q 158 -292 178 -292 q 146 -249 146 -292 q 147 -96 146 -164 q 150 57 150 40 l 150 129 q 6 208 136 146 l 6 213 q 68 264 6 222 q 150 328 139 314 l 150 535 q 118 558 150 542 q 88 593 88 576 q 204 713 88 603 l 221 713 l 286 667 q 336 618 336 632 l 336 539 l 332 419 q 250 358 319 400 q 183 307 183 314 q 258 264 204 286 q 336 217 310 243 l 336 140 "},"{":{"ha":407,"x_min":10,"x_max":388,"o":"m 388 -282 l 364 -282 q 190 -224 267 -282 q 106 -67 106 -161 q 124 51 106 -22 q 143 171 143 133 q 10 311 143 289 l 10 353 q 143 499 143 375 q 125 613 143 540 q 107 726 107 685 q 133 815 107 772 q 388 944 206 939 l 388 914 q 254 785 254 889 q 271 669 254 747 q 288 554 288 592 q 65 333 288 389 q 289 110 289 263 q 272 -4 289 71 q 256 -118 256 -79 q 388 -250 256 -222 l 388 -282 "},"|":{"ha":231,"x_min":50,"x_max":176,"o":"m 176 -189 l 50 -189 l 50 971 l 176 971 l 176 -189 "},"}":{"ha":406,"x_min":18,"x_max":396,"o":"m 396 310 q 261 164 261 289 q 279 50 261 122 q 297 -64 297 -22 q 271 -153 297 -110 q 18 -282 197 -276 l 18 -250 q 150 -122 150 -225 q 133 -7 150 -83 q 118 108 118 74 q 339 331 118 267 q 186 406 239 363 q 115 553 115 461 q 132 665 115 592 q 149 779 149 740 q 18 913 149 886 l 18 944 l 42 944 q 215 886 138 944 q 299 728 299 822 q 279 610 299 690 q 261 492 261 536 q 396 351 261 372 l 396 310 "},"~":{"ha":832,"x_min":42,"x_max":790,"o":"m 790 575 q 743 414 786 475 q 599 340 690 340 q 390 401 532 340 q 203 463 249 463 q 86 342 106 463 l 42 342 q 226 575 56 575 q 442 513 303 575 q 629 451 583 451 q 747 575 732 451 l 790 575 "},"":{"ha":344,"x_min":39,"x_max":333,"o":"m 296 893 q 232 829 285 879 q 168 781 179 781 q 100 844 160 781 q 39 925 39 910 q 168 1038 161 1038 l 296 904 l 296 893 m 333 192 q 181 76 201 85 q 122 31 168 67 q 61 -11 74 -7 q 44 10 44 -11 q 49 51 44 18 q 53 93 53 83 q 57 654 53 515 q 143 719 75 676 q 235 764 213 764 l 235 275 q 283 238 235 267 q 333 192 333 211 "},"":{"ha":419,"x_min":17,"x_max":410,"o":"m 410 124 l 242 0 q 163 40 203 21 l 106 -157 l 60 -157 l 121 58 q 17 85 90 69 l 17 101 q 58 219 58 131 l 58 607 q 226 725 149 649 l 301 683 l 354 868 l 399 868 l 339 661 l 403 625 l 332 518 l 303 535 l 199 161 l 332 101 l 403 151 l 410 124 m 265 557 l 199 594 l 199 325 l 265 557 "},"":{"ha":888,"x_min":17,"x_max":851,"o":"m 851 140 l 776 0 q 388 75 551 75 q 28 0 228 75 l 17 18 q 333 163 154 104 q 335 199 335 174 q 286 399 335 276 l 28 399 l 69 518 l 250 518 q 225 653 225 589 q 250 774 225 717 l 588 942 l 833 788 l 735 669 l 454 842 q 392 664 392 761 q 424 518 392 617 l 700 518 l 657 399 l 446 399 q 447 378 447 389 q 378 175 447 282 q 554 201 475 201 q 851 140 696 201 "},"":{"ha":782,"x_min":43,"x_max":739,"o":"m 739 193 l 657 110 l 568 197 q 389 142 483 142 q 214 197 299 142 l 128 110 l 43 193 l 132 281 q 76 457 76 365 q 132 633 76 549 l 43 721 l 125 806 l 214 717 q 392 771 301 771 q 568 717 483 771 l 657 806 l 739 721 l 651 633 q 706 456 706 547 q 651 281 706 364 l 739 193 m 588 457 q 531 596 588 539 q 392 653 474 653 q 251 596 308 653 q 194 457 194 539 q 251 317 194 374 q 392 260 308 260 q 531 317 474 260 q 588 457 588 374 "},"":{"ha":988,"x_min":19,"x_max":967,"o":"m 967 819 l 917 718 l 736 792 l 592 446 l 592 396 l 815 396 l 781 293 l 592 293 l 592 149 q 669 157 628 157 q 736 149 703 157 l 686 35 q 597 46 615 46 q 315 0 465 46 l 306 29 q 454 103 363 63 l 454 293 l 229 293 l 265 396 l 454 396 l 454 446 l 296 710 q 242 793 256 778 q 157 836 204 836 q 39 757 97 836 l 19 779 q 217 942 83 942 q 400 804 319 942 l 579 500 l 761 936 q 967 819 836 888 "},"":{"ha":217,"x_min":50,"x_max":176,"o":"m 176 474 l 50 474 l 50 971 l 176 971 l 176 474 m 176 -189 l 50 -189 l 50 307 l 176 307 l 176 -189 "},"":{"ha":626,"x_min":25,"x_max":600,"o":"m 600 358 q 483 149 600 260 q 535 33 535 93 q 479 -112 535 -36 q 372 -231 458 -143 l 86 -129 l 150 -17 l 436 -119 q 469 -44 469 -75 q 354 88 469 14 q 140 224 144 219 q 25 424 25 315 q 142 628 25 528 q 92 746 92 681 q 257 1006 92 860 l 540 903 l 472 793 l 188 896 q 157 821 157 849 q 272 689 157 763 l 485 553 q 600 358 600 463 m 532 283 q 465 397 532 339 q 350 478 429 429 q 161 607 276 522 q 94 489 94 542 q 172 369 94 435 q 299 285 200 347 q 465 169 410 217 q 532 283 532 231 "},"":{"ha":561,"x_min":35,"x_max":526,"o":"m 526 888 q 481 829 526 875 q 418 772 435 782 l 411 772 q 306 890 306 868 q 411 1003 306 910 q 415 1004 413 1004 q 474 949 422 1004 q 526 888 526 893 m 256 888 q 210 829 256 875 q 147 772 164 782 l 140 772 q 35 890 35 868 q 140 1003 35 910 q 144 1004 142 1004 q 203 949 151 1004 q 256 888 256 893 "},"":{"ha":1035,"x_min":35,"x_max":1000,"o":"m 858 142 q 517 1 715 1 q 175 142 315 1 q 35 483 35 282 q 175 825 35 682 q 517 967 317 967 q 858 825 717 967 q 1000 483 1000 683 q 858 142 1000 283 m 958 483 q 828 794 958 665 q 517 925 699 925 q 203 793 331 925 q 76 474 76 663 q 207 174 76 304 q 507 43 338 43 q 826 169 696 43 q 958 483 958 297 m 781 315 q 521 178 686 178 q 296 261 386 178 q 206 479 206 347 q 304 707 206 619 q 544 794 403 794 q 625 779 571 794 q 696 764 679 764 q 729 794 719 764 l 756 794 l 769 603 l 743 603 q 536 764 694 764 q 368 683 426 764 q 318 499 318 614 q 368 303 318 375 q 543 218 424 218 q 756 328 676 218 l 781 315 "},"":{"ha":436,"x_min":33,"x_max":406,"o":"m 406 685 l 296 613 q 244 697 250 642 l 107 613 q 33 724 33 665 q 125 878 33 799 l 78 988 l 94 1013 q 143 1004 124 1004 q 218 1032 169 1004 q 324 996 315 996 q 360 1021 339 996 l 378 1007 l 349 944 q 338 871 338 918 l 338 776 q 363 689 338 689 q 377 697 367 692 q 393 706 388 703 l 406 685 m 244 846 l 244 938 l 107 982 l 146 893 l 244 846 m 244 728 l 244 819 l 147 867 q 124 785 124 807 q 171 681 124 728 l 244 728 "},"":{"ha":546,"x_min":32,"x_max":504,"o":"m 504 63 l 485 40 q 344 190 397 101 q 290 388 290 283 q 485 735 290 589 l 504 715 q 388 390 388 583 q 504 63 388 189 m 247 63 l 229 40 q 32 388 32 179 q 229 735 32 593 l 247 715 q 129 389 129 593 q 247 63 129 185 "},"":{"ha":1469,"x_min":4,"x_max":1454,"o":"m 1454 150 q 1399 65 1453 136 q 1333 -1 1347 -1 q 1204 60 1314 -1 q 1096 136 1096 119 l 1096 149 q 1100 169 1096 142 q 1103 267 1100 171 q 1104 521 1104 335 q 1092 533 1104 528 l 974 533 l 872 529 l 865 525 l 865 85 q 690 13 735 13 q 681 38 681 22 l 676 529 q 582 533 614 533 q 349 531 557 533 q 117 529 246 529 q 4 533 39 529 l 4 563 l 56 668 q 106 694 68 694 l 676 694 l 676 783 q 736 810 676 788 q 804 842 797 833 q 628 883 721 874 q 613 885 622 883 q 599 886 603 886 q 579 903 579 889 q 617 996 579 928 q 674 1067 656 1067 q 804 1040 697 1067 q 1108 982 889 1019 q 1274 947 1183 971 q 1286 931 1286 942 l 1286 229 q 1301 214 1286 221 q 1426 150 1350 192 l 1454 150 m 1104 690 l 1104 769 q 1079 796 1104 789 q 863 831 918 831 l 863 792 q 868 694 863 726 l 872 690 q 1092 686 1028 686 q 1104 690 1103 686 "},"":{"ha":799,"x_min":39,"x_max":760,"o":"m 760 608 q 738 567 760 590 q 714 535 717 544 q 636 439 672 478 l 347 442 q 39 451 232 442 l 39 456 q 131 600 39 460 q 167 621 140 618 l 210 621 q 483 617 272 621 q 756 617 651 615 q 760 608 760 613 "},"":{"ha":1035,"x_min":35,"x_max":1000,"o":"m 858 142 q 517 1 715 1 q 175 142 315 1 q 35 483 35 282 q 175 825 35 682 q 517 967 317 967 q 858 825 717 967 q 1000 483 1000 683 q 858 142 1000 283 m 958 483 q 828 794 958 665 q 517 925 699 925 q 203 793 331 925 q 76 474 76 663 q 207 174 76 304 q 507 43 338 43 q 826 169 696 43 q 958 483 958 297 m 789 192 l 664 192 l 463 467 l 411 467 l 411 257 q 492 214 411 214 l 492 192 l 242 192 l 242 214 q 304 239 292 214 q 313 308 313 253 l 313 700 q 250 756 313 756 l 250 781 l 513 781 q 650 746 594 781 q 715 628 715 704 q 564 476 715 515 l 706 274 q 789 214 744 218 l 789 192 m 606 621 q 566 714 606 678 q 468 750 526 750 q 411 739 447 750 l 411 496 l 432 496 q 606 621 606 496 "},"":{"ha":515,"x_min":50,"x_max":464,"o":"m 464 847 l 50 847 l 50 939 l 464 939 l 464 847 "},"":{"ha":540,"x_min":35,"x_max":506,"o":"m 506 724 q 436 556 506 625 q 269 488 368 488 q 101 556 169 488 q 35 724 35 625 q 103 890 35 822 q 269 958 171 958 q 436 890 368 958 q 506 724 506 821 m 374 827 q 269 869 331 869 q 166 827 208 869 q 124 724 124 785 q 166 620 124 663 q 269 578 208 578 q 374 620 331 578 q 417 724 417 663 q 395 806 417 785 q 374 827 374 827 "},"":{"ha":783,"x_min":15,"x_max":767,"o":"m 767 513 l 453 513 l 453 201 l 328 201 l 328 513 l 15 513 l 15 639 l 328 639 l 328 951 l 453 951 l 453 639 l 767 639 l 767 513 m 767 -36 l 15 -36 l 15 89 l 767 89 l 767 -36 "},"":{"ha":496,"x_min":47,"x_max":449,"o":"m 449 544 l 371 449 q 218 476 275 476 q 83 449 151 476 l 47 461 q 129 589 57 529 l 257 688 q 324 828 324 750 q 294 890 324 858 l 126 785 l 47 857 l 206 958 l 443 861 q 449 817 449 838 q 383 686 449 739 q 247 610 353 661 q 126 524 156 565 q 318 567 221 567 q 449 544 390 567 "},"":{"ha":482,"x_min":28,"x_max":451,"o":"m 451 611 q 149 450 451 465 l 28 547 l 113 626 l 282 496 q 318 586 318 532 q 269 688 318 660 q 154 706 235 706 l 154 740 q 301 850 301 740 q 268 900 301 900 q 133 815 256 900 l 61 893 l 154 956 l 436 879 q 322 726 411 753 q 451 611 451 693 "},"":{"ha":254,"x_min":31,"x_max":250,"o":"m 250 1026 l 68 772 l 31 772 l 92 1026 l 250 1026 "},"":{"ha":761,"x_min":43,"x_max":751,"o":"m 751 139 q 608 -19 743 -19 q 482 110 497 -19 q 390 25 399 31 q 278 -19 331 -19 q 157 39 206 -19 q 156 7 156 26 q 175 -111 156 -31 q 194 -226 194 -192 q 172 -280 194 -258 q 118 -301 150 -301 q 43 -228 43 -301 q 68 -114 43 -203 q 96 72 96 -14 l 94 643 l 232 643 l 232 261 q 335 63 232 63 q 415 96 372 63 l 482 156 l 482 643 l 619 643 l 619 178 q 621 106 619 113 q 657 56 628 56 q 717 139 708 56 l 751 139 "},"":{"ha":688,"x_min":14,"x_max":657,"o":"m 657 885 l 567 885 l 567 -301 l 518 -301 l 518 885 l 390 885 l 390 -301 l 340 -301 l 340 408 q 111 463 183 414 q 14 668 14 522 q 107 863 14 794 q 321 922 189 922 l 657 922 l 657 885 "},"":{"ha":354,"x_min":43,"x_max":308,"o":"m 308 340 q 179 228 203 228 q 119 276 176 228 q 64 328 83 308 q 43 349 50 340 l 43 357 l 164 476 l 167 476 q 183 472 178 476 q 233 426 203 461 q 283 376 269 386 q 308 349 308 358 l 308 340 "},"":{"ha":339,"x_min":22,"x_max":301,"o":"m 301 -89 q 240 -187 301 -156 q 121 -212 192 -212 q 22 -204 71 -212 l 33 -182 q 92 -186 83 -186 q 156 -169 126 -186 q 190 -117 190 -151 q 71 -56 190 -44 l 121 -3 q 189 14 161 14 q 269 -15 236 14 q 301 -89 301 -44 "},"":{"ha":300,"x_min":17,"x_max":285,"o":"m 285 533 l 169 453 l 65 513 l 90 540 l 90 807 q 72 881 90 881 q 35 860 64 881 l 17 885 l 129 960 q 197 903 181 943 q 208 813 208 874 l 208 596 l 208 558 q 231 533 211 553 l 267 558 l 285 533 "},"":{"ha":388,"x_min":31,"x_max":344,"o":"m 344 678 q 207 614 282 660 q 40 660 106 660 l 31 678 q 57 775 57 708 l 57 972 q 196 1033 135 988 q 344 986 263 993 l 344 678 m 254 692 l 254 919 q 149 951 210 942 l 149 728 l 254 692 "},"":{"ha":544,"x_min":40,"x_max":513,"o":"m 513 388 q 317 40 513 181 l 299 63 q 415 389 415 188 q 299 715 415 593 l 317 735 q 513 388 513 593 m 256 388 q 200 190 256 285 q 60 40 149 101 l 40 63 q 157 390 157 189 q 40 715 157 583 l 60 735 q 256 388 256 589 "},"":{"ha":903,"x_min":44,"x_max":926,"o":"m 926 894 q 872 832 926 883 q 807 775 819 779 l 804 775 q 722 818 803 775 q 676 843 700 831 q 643 861 653 856 q 632 867 633 867 l 628 867 q 619 863 624 867 l 619 775 q 611 -226 621 208 q 529 -274 611 -233 q 436 -314 446 -314 q 429 -304 429 -314 q 433 100 429 -169 q 439 504 439 339 l 439 671 l 439 729 q 438 788 438 757 q 344 840 433 794 q 247 883 260 883 q 239 406 239 788 q 235 -178 239 368 q 237 -206 235 -183 q 239 -235 239 -228 q 158 -272 207 -254 q 74 -301 83 -297 q 44 -312 65 -307 q 53 -243 44 -304 l 53 -221 q 55 -149 54 -199 q 56 -43 56 -100 l 57 700 q 58 767 57 738 q 61 838 61 828 q 222 919 64 840 q 279 985 253 951 q 340 1032 325 1032 q 563 928 350 1032 q 588 919 569 919 l 643 982 q 703 1028 686 1028 q 918 915 832 972 q 926 894 926 908 "},"":{"ha":835,"x_min":56,"x_max":835,"o":"m 835 660 l 744 532 l 649 532 l 640 524 l 640 204 q 717 161 651 192 q 797 121 786 129 q 801 107 801 119 q 751 32 801 89 q 686 -24 701 -24 q 654 -10 676 -24 q 639 0 650 -6 q 624 10 628 6 q 593 24 611 15 q 548 47 575 33 q 499 69 521 60 q 403 132 403 117 q 429 169 403 139 q 457 208 457 204 l 457 533 l 350 533 q 340 549 340 533 q 399 624 340 564 q 457 701 457 683 q 453 776 457 743 q 447 783 451 778 q 438 793 442 789 q 336 846 415 801 q 250 893 254 893 q 240 889 244 893 l 240 -197 q 56 -287 88 -287 l 56 889 q 132 932 76 907 q 178 953 149 939 q 217 971 207 967 q 268 1019 229 976 q 325 1054 299 1054 q 379 1038 350 1054 q 519 958 433 1010 q 585 925 529 954 q 638 892 638 897 l 638 685 l 649 676 l 835 676 l 835 660 "},"":{"ha":744,"x_min":0,"x_max":688,"o":"m 688 -140 q 597 -199 688 -149 q 499 -249 508 -249 q 489 -243 489 -249 q 495 -208 489 -235 q 501 -172 501 -181 q 499 -157 501 -169 q 497 -140 497 -144 l 506 -133 l 506 215 q 485 224 500 224 l 385 274 q 381 283 381 279 q 435 331 381 296 q 506 381 500 375 l 506 417 q 501 522 506 476 q 472 539 492 535 q 322 543 453 543 l 311 543 l 307 539 l 307 232 q 372 186 307 226 q 439 128 439 149 q 318 13 331 13 q 203 83 308 13 q 175 97 194 88 q 147 111 156 106 q 107 143 107 132 q 119 165 107 154 l 119 539 q 60 549 111 549 q 0 558 8 549 l 0 563 q 54 633 17 592 q 115 700 96 676 l 115 840 q 189 893 115 857 q 282 936 229 913 l 290 936 q 303 932 297 936 l 303 876 q 300 796 303 868 q 297 717 297 726 q 299 700 297 704 l 303 696 q 367 692 331 692 l 468 692 q 522 742 492 717 l 524 742 q 600 685 528 742 q 683 617 668 632 l 683 435 q 631 403 683 428 q 572 368 579 381 q 632 336 579 358 q 688 303 688 314 l 688 -140 "},"":{"ha":390,"x_min":22,"x_max":369,"o":"m 369 692 q 315 608 367 683 q 218 458 254 522 q 167 301 167 364 q 208 200 167 243 q 283 140 231 175 q 325 106 325 115 q 324 96 325 100 q 208 -11 217 -11 q 150 18 197 -11 q 22 189 22 97 q 97 389 22 267 l 225 572 l 225 583 l 93 692 q 92 699 92 694 q 113 731 92 717 q 200 808 169 774 l 131 878 q 79 949 79 931 q 208 1061 203 1061 l 336 928 l 336 917 q 221 810 308 885 l 299 756 q 369 692 344 721 "},"":{"ha":811,"x_min":47,"x_max":788,"o":"m 788 122 q 735 47 788 100 q 657 -4 683 -4 q 471 89 572 35 q 457 110 457 94 l 457 494 q 388 504 457 504 q 242 494 250 504 l 242 68 q 168 35 225 56 q 126 19 146 26 q 96 8 106 13 q 85 4 86 4 l 76 4 q 60 13 60 4 q 56 765 56 89 q 125 801 56 772 q 204 842 193 831 q 118 867 193 857 q 47 894 47 878 q 90 961 47 906 q 144 1028 131 1014 l 153 1028 q 161 1029 157 1029 q 550 933 204 1029 q 639 901 586 924 q 640 557 639 710 q 643 215 643 251 q 724 167 656 201 q 788 122 788 136 m 453 681 l 453 774 l 449 778 q 353 807 422 789 q 263 829 281 829 q 250 825 256 829 q 246 722 246 783 l 246 685 l 250 681 l 453 681 m 382 1083 l 344 1083 l 163 1338 l 319 1338 l 382 1083 "},"":{"ha":811,"x_min":47,"x_max":788,"o":"m 788 122 q 735 47 788 100 q 657 -4 683 -4 q 471 89 572 35 q 457 110 457 94 l 457 494 q 388 504 457 504 q 242 494 250 504 l 242 68 q 168 35 225 56 q 126 19 146 26 q 96 8 106 13 q 85 4 86 4 l 76 4 q 60 13 60 4 q 56 765 56 89 q 125 801 56 772 q 204 842 193 831 q 118 867 193 857 q 47 894 47 878 q 90 961 47 906 q 144 1028 131 1014 l 153 1028 q 161 1029 157 1029 q 550 933 204 1029 q 639 901 586 924 q 640 557 639 710 q 643 215 643 251 q 724 167 656 201 q 788 122 788 136 m 453 681 l 453 774 l 449 778 q 353 807 422 789 q 263 829 281 829 q 250 825 256 829 q 246 722 246 783 l 246 685 l 250 681 l 453 681 m 625 1338 l 443 1083 l 406 1083 l 467 1338 l 625 1338 "},"":{"ha":811,"x_min":47,"x_max":788,"o":"m 788 122 q 735 47 788 100 q 657 -4 683 -4 q 471 89 572 35 q 457 110 457 94 l 457 494 q 388 504 457 504 q 242 494 250 504 l 242 68 q 168 35 225 56 q 126 19 146 26 q 96 8 106 13 q 85 4 86 4 l 76 4 q 60 13 60 4 q 56 765 56 89 q 125 801 56 772 q 204 842 193 831 q 118 867 193 857 q 47 894 47 878 q 90 961 47 906 q 144 1028 131 1014 l 153 1028 q 161 1029 157 1029 q 550 933 204 1029 q 639 901 586 924 q 640 557 639 710 q 643 215 643 251 q 724 167 656 201 q 788 122 788 136 m 453 681 l 453 774 l 449 778 q 353 807 422 789 q 263 829 281 829 q 250 825 256 829 q 246 722 246 783 l 246 685 l 250 681 l 453 681 m 567 1083 l 525 1083 l 367 1229 l 206 1083 l 165 1083 l 293 1338 l 440 1338 l 567 1083 "},"":{"ha":811,"x_min":47,"x_max":788,"o":"m 788 122 q 735 47 788 100 q 657 -4 683 -4 q 471 89 572 35 q 457 110 457 94 l 457 494 q 388 504 457 504 q 242 494 250 504 l 242 68 q 168 35 225 56 q 126 19 146 26 q 96 8 106 13 q 85 4 86 4 l 76 4 q 60 13 60 4 q 56 765 56 89 q 125 801 56 772 q 204 842 193 831 q 118 867 193 857 q 47 894 47 878 q 90 961 47 906 q 144 1028 131 1014 l 153 1028 q 161 1029 157 1029 q 550 933 204 1029 q 639 901 586 924 q 640 557 639 710 q 643 215 643 251 q 724 167 656 201 q 788 122 788 136 m 453 681 l 453 774 l 449 778 q 353 807 422 789 q 263 829 281 829 q 250 825 256 829 q 246 722 246 783 l 246 685 l 250 681 l 453 681 m 608 1249 q 467 1083 593 1083 q 360 1113 428 1083 q 264 1143 293 1143 q 199 1083 219 1143 l 171 1083 q 307 1249 194 1249 q 411 1217 343 1249 q 514 1186 476 1186 q 583 1249 563 1186 l 608 1249 "},"":{"ha":806,"x_min":42,"x_max":782,"o":"m 606 1199 q 560 1140 606 1186 q 497 1083 514 1093 l 490 1083 q 385 1201 385 1179 q 490 1314 385 1221 q 494 1315 492 1315 q 553 1260 501 1315 q 606 1199 606 1204 m 335 1199 q 289 1140 335 1186 q 226 1083 243 1093 l 219 1083 q 114 1201 114 1179 q 219 1314 114 1221 q 224 1315 221 1315 q 282 1260 231 1315 q 335 1199 335 1204 m 782 122 q 729 47 782 100 q 651 -4 678 -4 q 465 89 567 35 q 451 110 451 94 l 451 494 q 382 504 451 504 q 236 494 244 504 l 236 68 q 163 35 219 56 q 120 19 140 26 q 90 8 100 13 q 79 4 81 4 l 71 4 q 54 13 54 4 q 50 765 50 89 q 119 801 50 772 q 199 842 188 831 q 113 867 188 857 q 42 894 42 878 q 85 961 42 906 q 139 1028 125 1014 l 147 1028 q 156 1029 151 1029 q 544 933 199 1029 q 633 901 581 924 q 635 557 633 710 q 638 215 638 251 q 718 167 650 201 q 782 122 782 136 m 447 681 l 447 774 l 443 778 q 347 807 417 789 q 257 829 275 829 q 244 825 250 829 q 240 722 240 783 l 240 685 l 244 681 l 447 681 "},"":{"ha":811,"x_min":47,"x_max":788,"o":"m 788 122 q 735 47 788 100 q 657 -4 683 -4 q 471 89 572 35 q 457 110 457 94 l 457 494 q 388 504 457 504 q 242 494 250 504 l 242 68 q 168 35 225 56 q 126 19 146 26 q 96 8 106 13 q 85 4 86 4 l 76 4 q 60 13 60 4 q 56 765 56 89 q 125 801 56 772 q 204 842 193 831 q 118 867 193 857 q 47 894 47 878 q 90 961 47 906 q 144 1028 131 1014 l 153 1028 q 161 1029 157 1029 q 550 933 204 1029 q 639 901 586 924 q 640 557 639 710 q 643 215 643 251 q 724 167 656 201 q 788 122 788 136 m 453 681 l 453 774 l 449 778 q 353 807 422 789 q 263 829 281 829 q 250 825 256 829 q 246 722 246 783 l 246 685 l 250 681 l 453 681 m 446 1115 q 365 1082 413 1082 q 285 1115 318 1082 q 251 1196 251 1149 q 285 1276 251 1243 q 365 1310 318 1310 q 446 1276 413 1310 q 479 1196 479 1243 q 463 1132 479 1149 q 446 1115 446 1115 m 418 1248 q 365 1269 396 1269 q 313 1248 335 1269 q 290 1196 290 1226 q 312 1142 290 1164 q 365 1121 333 1121 q 418 1143 396 1121 q 440 1196 440 1165 q 429 1237 440 1226 q 418 1248 418 1248 "},"":{"ha":1074,"x_min":47,"x_max":1025,"o":"m 1025 886 l 1025 879 q 1024 874 1024 876 l 971 811 q 918 764 932 764 q 651 874 700 874 l 647 869 q 643 663 643 836 l 647 658 q 976 646 758 656 l 986 638 l 986 633 q 922 481 933 481 l 643 481 l 643 240 q 815 192 643 233 q 988 125 988 153 q 946 46 988 106 q 889 -14 904 -14 q 717 32 879 -14 q 657 -4 676 -4 q 471 89 546 46 q 456 139 456 97 l 456 497 q 399 504 449 504 q 242 494 251 504 l 242 68 q 167 35 225 56 q 125 19 144 26 q 96 8 106 13 q 85 4 86 4 l 76 4 q 60 13 60 4 q 56 765 56 89 q 125 801 56 772 q 204 842 194 831 q 118 867 193 857 q 47 894 47 878 q 92 961 47 904 q 144 1028 136 1019 l 153 1028 q 161 1029 157 1029 q 622 911 242 1029 l 681 981 q 746 1031 725 1031 q 836 997 767 1031 l 926 950 l 1011 913 q 1025 886 1025 907 m 453 681 l 453 774 q 363 806 446 782 q 263 829 276 829 q 250 825 256 829 q 246 722 246 783 l 246 685 l 250 681 l 453 681 "},"":{"ha":651,"x_min":64,"x_max":643,"o":"m 643 904 q 529 786 642 897 q 508 782 525 782 q 388 826 493 782 q 263 883 300 864 l 261 883 q 250 850 250 883 q 254 254 250 686 l 258 250 l 397 211 q 419 199 400 210 q 492 178 447 188 q 593 133 593 156 q 556 68 593 122 q 507 3 525 22 q 572 -92 572 -22 q 511 -190 572 -158 q 392 -215 464 -215 q 293 -207 340 -215 l 304 -185 q 363 -189 354 -189 q 426 -172 397 -189 q 461 -119 461 -154 q 342 -58 461 -47 l 392 -6 q 433 8 408 4 l 297 60 q 157 97 221 86 q 108 104 124 103 q 68 126 78 110 l 68 204 q 67 501 69 267 q 64 799 64 782 l 64 846 q 135 896 64 856 q 225 943 203 935 l 282 999 q 343 1036 322 1036 q 508 976 375 1036 q 643 904 643 917 "},"":{"ha":644,"x_min":67,"x_max":643,"o":"m 643 908 l 643 901 q 642 896 642 899 l 589 833 q 536 786 550 786 q 269 896 318 896 l 265 892 q 261 685 261 858 l 265 681 q 594 668 375 678 l 604 660 l 604 656 q 540 503 551 503 l 261 503 l 261 263 q 431 210 261 256 q 600 138 600 164 q 558 58 600 119 q 501 -1 517 -1 q 497 0 499 -1 q 88 122 385 39 q 67 149 67 129 l 74 161 l 74 842 q 210 918 88 851 q 285 985 233 918 q 364 1053 336 1053 q 454 1019 385 1053 l 544 972 q 629 935 571 963 q 643 908 643 929 m 382 1083 l 344 1083 l 163 1338 l 319 1338 l 382 1083 "},"":{"ha":644,"x_min":67,"x_max":643,"o":"m 643 908 l 643 901 q 642 896 642 899 l 589 833 q 536 786 550 786 q 269 896 318 896 l 265 892 q 261 685 261 858 l 265 681 q 594 668 375 678 l 604 660 l 604 656 q 540 503 551 503 l 261 503 l 261 263 q 431 210 261 256 q 600 138 600 164 q 558 58 600 119 q 501 -1 517 -1 q 497 0 499 -1 q 88 122 385 39 q 67 149 67 129 l 74 161 l 74 842 q 210 918 88 851 q 285 985 233 918 q 364 1053 336 1053 q 454 1019 385 1053 l 544 972 q 629 935 571 963 q 643 908 643 929 m 569 1338 l 388 1083 l 350 1083 l 411 1338 l 569 1338 "},"":{"ha":644,"x_min":67,"x_max":643,"o":"m 643 908 l 643 901 q 642 896 642 899 l 589 833 q 536 786 550 786 q 269 896 318 896 l 265 892 q 261 685 261 858 l 265 681 q 594 668 375 678 l 604 660 l 604 656 q 540 503 551 503 l 261 503 l 261 263 q 431 210 261 256 q 600 138 600 164 q 558 58 600 119 q 501 -1 517 -1 q 497 0 499 -1 q 88 122 385 39 q 67 149 67 129 l 74 161 l 74 842 q 210 918 88 851 q 285 985 233 918 q 364 1053 336 1053 q 454 1019 385 1053 l 544 972 q 629 935 571 963 q 643 908 643 929 m 567 1083 l 525 1083 l 367 1229 l 206 1083 l 165 1083 l 293 1338 l 440 1338 l 567 1083 "},"":{"ha":644,"x_min":63,"x_max":639,"o":"m 631 1199 q 585 1140 631 1186 q 522 1083 539 1093 l 515 1083 q 410 1201 410 1179 q 515 1314 410 1221 q 519 1315 517 1315 q 578 1260 526 1315 q 631 1199 631 1204 m 360 1199 q 314 1140 360 1186 q 251 1083 268 1093 l 244 1083 q 139 1201 139 1179 q 244 1314 139 1221 q 249 1315 246 1315 q 307 1260 256 1315 q 360 1199 360 1204 m 639 908 l 639 901 q 638 896 638 899 l 585 833 q 532 786 546 786 q 265 896 314 896 l 261 892 q 257 685 257 858 l 261 681 q 590 668 372 678 l 600 660 l 600 656 q 536 503 547 503 l 257 503 l 257 263 q 426 210 257 256 q 596 138 596 164 q 554 58 596 119 q 497 -1 513 -1 q 493 0 494 -1 q 83 122 381 39 q 63 149 63 129 l 69 161 l 69 842 q 206 918 83 851 q 281 985 228 918 q 360 1053 332 1053 q 450 1019 382 1053 l 540 972 q 625 935 567 963 q 639 908 639 929 "},"":{"ha":538,"x_min":15,"x_max":493,"o":"m 493 1003 q 491 976 493 997 q 489 949 489 956 l 489 175 q 417 125 489 160 q 324 78 400 118 l 257 10 q 225 1 247 1 q 117 51 206 1 q 19 115 25 103 q 15 135 15 124 q 117 251 15 150 l 125 256 l 129 256 q 297 161 286 161 q 307 208 307 161 q 304 546 307 246 q 303 885 303 696 l 299 889 l 294 889 q 183 817 193 817 q 86 869 160 817 q 15 946 15 924 q 129 1054 15 978 l 138 1054 q 225 999 160 1054 q 307 943 290 943 q 386 999 321 943 q 471 1054 451 1054 q 493 1003 493 1054 m 340 1083 l 303 1083 l 121 1338 l 278 1338 l 340 1083 "},"":{"ha":538,"x_min":15,"x_max":514,"o":"m 493 1003 q 491 976 493 997 q 489 949 489 956 l 489 175 q 417 125 489 160 q 324 78 400 118 l 257 10 q 225 1 247 1 q 117 51 206 1 q 19 115 25 103 q 15 135 15 124 q 117 251 15 150 l 125 256 l 129 256 q 297 161 286 161 q 307 208 307 161 q 304 546 307 246 q 303 885 303 696 l 299 889 l 294 889 q 183 817 193 817 q 86 869 160 817 q 15 946 15 924 q 129 1054 15 978 l 138 1054 q 225 999 160 1054 q 307 943 290 943 q 386 999 321 943 q 471 1054 451 1054 q 493 1003 493 1054 m 514 1338 l 332 1083 l 294 1083 l 356 1338 l 514 1338 "},"":{"ha":538,"x_min":15,"x_max":493,"o":"m 493 1003 q 491 976 493 997 q 489 949 489 956 l 489 175 q 417 125 489 160 q 324 78 400 118 l 257 10 q 225 1 247 1 q 117 51 206 1 q 19 115 25 103 q 15 135 15 124 q 117 251 15 150 l 125 256 l 129 256 q 297 161 286 161 q 307 208 307 161 q 304 546 307 246 q 303 885 303 696 l 299 889 l 294 889 q 183 817 193 817 q 86 869 160 817 q 15 946 15 924 q 129 1054 15 978 l 138 1054 q 225 999 160 1054 q 307 943 290 943 q 386 999 321 943 q 471 1054 451 1054 q 493 1003 493 1054 m 483 1083 l 442 1083 l 283 1229 l 122 1083 l 82 1083 l 210 1338 l 357 1338 l 483 1083 "},"":{"ha":538,"x_min":14,"x_max":506,"o":"m 493 1003 q 491 976 493 997 q 489 949 489 956 l 489 175 q 417 125 489 160 q 324 78 400 118 l 257 10 q 225 1 247 1 q 117 51 206 1 q 19 115 25 103 q 15 135 15 124 q 117 251 15 150 l 125 256 l 129 256 q 297 161 286 161 q 307 208 307 161 q 304 546 307 246 q 303 885 303 696 l 299 889 l 294 889 q 183 817 193 817 q 86 869 160 817 q 15 946 15 924 q 129 1054 15 978 l 138 1054 q 225 999 160 1054 q 307 943 290 943 q 386 999 321 943 q 471 1054 451 1054 q 493 1003 493 1054 m 506 1199 q 460 1140 506 1186 q 397 1083 414 1093 l 390 1083 q 285 1201 285 1179 q 390 1314 285 1221 q 394 1315 392 1315 q 453 1260 401 1315 q 506 1199 506 1204 m 235 1199 q 189 1140 235 1186 q 126 1083 143 1093 l 119 1083 q 14 1201 14 1179 q 119 1314 14 1221 q 124 1315 121 1315 q 182 1260 131 1315 q 235 1199 235 1204 "},"":{"ha":714,"x_min":28,"x_max":676,"o":"m 676 175 q 617 136 661 157 l 550 103 q 492 43 528 90 q 433 -4 454 -4 q 232 82 424 -4 q 110 136 226 82 l 101 150 q 97 440 96 226 l 28 440 l 28 535 l 96 535 q 95 572 96 554 q 94 599 94 590 q 93 610 93 608 q 101 742 93 719 q 263 825 167 771 l 165 864 q 89 911 89 894 q 135 971 89 925 l 194 1028 q 206 1029 197 1029 q 446 938 229 1029 q 667 840 658 847 q 676 610 676 832 l 676 175 m 490 200 l 490 724 q 397 776 490 735 q 283 817 304 818 l 279 813 l 279 629 q 281 535 279 571 l 438 535 l 438 440 l 281 440 q 283 256 281 419 q 383 208 301 246 q 478 171 467 171 q 490 200 490 171 "},"":{"ha":892,"x_min":46,"x_max":846,"o":"m 797 44 q 732 -4 749 -4 q 643 42 717 -4 q 594 73 619 57 q 558 95 568 89 q 546 101 547 101 q 542 172 542 110 l 542 314 q 532 842 542 617 q 432 893 526 849 q 329 936 342 936 q 317 919 317 936 q 321 518 317 786 q 325 118 325 251 q 319 79 325 90 q 247 33 315 67 q 161 0 178 0 q 139 13 144 0 q 138 90 139 42 q 137 223 138 139 q 136 372 136 307 q 135 868 135 510 q 85 903 129 875 q 46 944 46 925 q 85 999 46 960 q 139 1050 103 1017 q 172 1063 151 1063 l 308 978 l 321 978 q 376 1035 358 1015 q 436 1075 419 1075 q 565 1024 444 1075 q 700 964 689 971 q 714 949 711 958 q 719 768 715 944 q 724 360 724 575 l 724 221 q 793 168 731 214 q 846 114 846 132 q 797 44 846 96 m 664 1249 q 522 1083 649 1083 q 415 1113 485 1083 q 319 1143 349 1143 q 254 1083 275 1143 l 226 1083 q 363 1249 250 1249 q 467 1217 399 1249 q 569 1186 532 1186 q 639 1249 618 1186 l 664 1249 "},"":{"ha":707,"x_min":58,"x_max":642,"o":"m 642 106 q 611 85 642 85 q 560 87 600 85 q 507 89 519 89 q 403 -12 406 -12 q 308 19 376 -12 q 215 64 228 60 q 117 101 161 83 q 71 131 94 111 q 68 308 68 183 q 63 575 68 418 q 58 842 58 753 q 85 883 58 869 q 219 956 175 929 q 338 1065 274 1010 l 339 1065 q 408 1040 356 1065 q 481 1006 468 1013 l 565 974 q 636 936 632 949 q 642 900 642 925 l 642 106 m 460 161 l 460 431 q 456 829 460 633 q 353 879 446 839 q 244 918 265 918 q 247 457 244 699 q 253 246 246 400 q 261 238 256 239 q 365 192 321 211 q 428 165 408 174 q 447 156 449 156 q 460 161 460 156 m 340 1083 l 303 1083 l 121 1338 l 278 1338 l 340 1083 "},"":{"ha":707,"x_min":58,"x_max":642,"o":"m 642 106 q 611 85 642 85 q 560 87 600 85 q 507 89 519 89 q 403 -12 406 -12 q 308 19 376 -12 q 215 64 228 60 q 117 101 161 83 q 71 131 94 111 q 68 308 68 183 q 63 575 68 418 q 58 842 58 753 q 85 883 58 869 q 219 956 175 929 q 338 1065 274 1010 l 339 1065 q 408 1040 356 1065 q 481 1006 468 1013 l 565 974 q 636 936 632 949 q 642 900 642 925 l 642 106 m 460 161 l 460 431 q 456 829 460 633 q 353 879 446 839 q 244 918 265 918 q 247 457 244 699 q 253 246 246 400 q 261 238 256 239 q 365 192 321 211 q 428 165 408 174 q 447 156 449 156 q 460 161 460 156 m 625 1338 l 443 1083 l 406 1083 l 467 1338 l 625 1338 "},"":{"ha":707,"x_min":58,"x_max":642,"o":"m 642 106 q 611 85 642 85 q 560 87 600 85 q 507 89 519 89 q 403 -12 406 -12 q 308 19 376 -12 q 215 64 228 60 q 117 101 161 83 q 71 131 94 111 q 68 308 68 183 q 63 575 68 418 q 58 842 58 753 q 85 883 58 869 q 219 956 175 929 q 338 1065 274 1010 l 339 1065 q 408 1040 356 1065 q 481 1006 468 1013 l 565 974 q 636 936 632 949 q 642 900 642 925 l 642 106 m 460 161 l 460 431 q 456 829 460 633 q 353 879 446 839 q 244 918 265 918 q 247 457 244 699 q 253 246 246 400 q 261 238 256 239 q 365 192 321 211 q 428 165 408 174 q 447 156 449 156 q 460 161 460 156 m 539 1083 l 497 1083 l 339 1229 l 178 1083 l 138 1083 l 265 1338 l 413 1338 l 539 1083 "},"":{"ha":707,"x_min":58,"x_max":642,"o":"m 642 106 q 611 85 642 85 q 560 87 600 85 q 507 89 519 89 q 403 -12 406 -12 q 308 19 376 -12 q 215 64 228 60 q 117 101 161 83 q 71 131 94 111 q 68 308 68 183 q 63 575 68 418 q 58 842 58 753 q 85 883 58 869 q 219 956 175 929 q 338 1065 274 1010 l 339 1065 q 408 1040 356 1065 q 481 1006 468 1013 l 565 974 q 636 936 632 949 q 642 900 642 925 l 642 106 m 460 161 l 460 431 q 456 829 460 633 q 353 879 446 839 q 244 918 265 918 q 247 457 244 699 q 253 246 246 400 q 261 238 256 239 q 365 192 321 211 q 428 165 408 174 q 447 156 449 156 q 460 161 460 156 m 594 1249 q 453 1083 579 1083 q 346 1113 414 1083 q 250 1143 279 1143 q 185 1083 206 1143 l 157 1083 q 293 1249 181 1249 q 397 1217 329 1249 q 500 1186 463 1186 q 569 1249 549 1186 l 594 1249 "},"":{"ha":707,"x_min":58,"x_max":642,"o":"m 597 1199 q 551 1140 597 1186 q 489 1083 506 1093 l 482 1083 q 376 1201 376 1179 q 482 1314 376 1221 q 486 1315 483 1315 q 544 1260 493 1315 q 597 1199 597 1204 m 326 1199 q 281 1140 326 1186 q 218 1083 235 1093 l 211 1083 q 106 1201 106 1179 q 211 1314 106 1221 q 215 1315 213 1315 q 274 1260 222 1315 q 326 1199 326 1204 m 642 106 q 611 85 642 85 q 560 87 600 85 q 507 89 519 89 q 403 -12 406 -12 q 308 19 376 -12 q 215 64 228 60 q 117 101 161 83 q 71 131 94 111 q 68 308 68 183 q 63 575 68 418 q 58 842 58 753 q 85 883 58 869 q 219 956 175 929 q 338 1065 274 1010 l 339 1065 q 408 1040 356 1065 q 481 1006 468 1013 l 565 974 q 636 936 632 949 q 642 900 642 925 l 642 106 m 460 161 l 460 431 q 456 829 460 633 q 353 879 446 839 q 244 918 265 918 q 247 457 244 699 q 253 246 246 400 q 261 238 256 239 q 365 192 321 211 q 428 165 408 174 q 447 156 449 156 q 460 161 460 156 "},"":{"ha":786,"x_min":42,"x_max":744,"o":"m 744 718 l 482 456 l 742 194 l 654 107 l 393 367 l 132 107 l 43 194 l 304 456 l 42 719 l 131 808 l 393 543 l 656 808 l 744 718 "},"":{"ha":707,"x_min":58,"x_max":671,"o":"m 247 346 l 457 758 l 456 829 q 353 879 446 839 q 244 918 265 918 q 247 457 244 699 l 247 346 m 458 626 l 261 238 q 447 156 444 156 q 460 161 460 156 l 460 431 q 458 626 460 561 m 617 1071 l 671 1043 l 622 947 q 642 900 642 936 l 642 106 q 611 85 642 85 q 560 87 600 85 q 507 89 519 89 q 403 -12 406 -12 q 308 19 376 -12 q 215 64 228 60 l 179 78 l 126 -28 l 72 0 l 121 100 l 117 101 q 71 131 72 119 q 68 308 68 183 q 63 575 68 418 q 58 842 58 753 q 85 883 58 869 q 219 956 175 929 q 338 1065 274 1010 l 339 1065 q 408 1040 356 1065 q 481 1006 468 1013 l 565 974 l 567 974 l 617 1071 "},"":{"ha":807,"x_min":13,"x_max":790,"o":"m 790 106 q 739 35 790 86 q 676 -18 689 -18 q 582 36 664 -18 q 489 92 504 92 q 428 36 461 92 q 369 -19 394 -19 q 246 42 368 -19 l 108 113 q 93 131 93 124 l 93 853 q 53 899 93 874 q 13 943 13 924 q 58 1006 13 958 l 118 1064 l 139 1064 q 276 954 243 1004 l 276 235 q 471 133 467 133 q 494 160 494 133 l 494 724 q 490 874 494 803 l 446 910 q 414 949 414 938 q 418 967 414 963 l 519 1064 q 544 1068 524 1068 l 614 1017 q 678 958 654 988 l 678 197 q 733 157 678 192 q 790 106 790 121 m 382 1083 l 344 1083 l 163 1338 l 319 1338 l 382 1083 "},"":{"ha":807,"x_min":13,"x_max":790,"o":"m 790 106 q 739 35 790 86 q 676 -18 689 -18 q 582 36 664 -18 q 489 92 504 92 q 428 36 461 92 q 369 -19 394 -19 q 246 42 368 -19 l 108 113 q 93 131 93 124 l 93 853 q 53 899 93 874 q 13 943 13 924 q 58 1006 13 958 l 118 1064 l 139 1064 q 276 954 243 1004 l 276 235 q 471 133 467 133 q 494 160 494 133 l 494 724 q 490 874 494 803 l 446 910 q 414 949 414 938 q 418 967 414 963 l 519 1064 q 544 1068 524 1068 l 614 1017 q 678 958 654 988 l 678 197 q 733 157 678 192 q 790 106 790 121 m 569 1338 l 388 1083 l 350 1083 l 411 1338 l 569 1338 "},"":{"ha":807,"x_min":13,"x_max":790,"o":"m 790 106 q 739 35 790 86 q 676 -18 689 -18 q 582 36 664 -18 q 489 92 504 92 q 428 36 461 92 q 369 -19 394 -19 q 246 42 368 -19 l 108 113 q 93 131 93 124 l 93 853 q 53 899 93 874 q 13 943 13 924 q 58 1006 13 958 l 118 1064 l 139 1064 q 276 954 243 1004 l 276 235 q 471 133 467 133 q 494 160 494 133 l 494 724 q 490 874 494 803 l 446 910 q 414 949 414 938 q 418 967 414 963 l 519 1064 q 544 1068 524 1068 l 614 1017 q 678 958 654 988 l 678 197 q 733 157 678 192 q 790 106 790 121 m 539 1083 l 497 1083 l 339 1229 l 178 1083 l 138 1083 l 265 1338 l 413 1338 l 539 1083 "},"":{"ha":807,"x_min":11,"x_max":789,"o":"m 578 1199 q 532 1140 578 1186 q 469 1083 486 1093 l 463 1083 q 357 1201 357 1179 q 463 1314 357 1221 q 467 1315 464 1315 q 525 1260 474 1315 q 578 1199 578 1204 m 307 1199 q 261 1140 307 1186 q 199 1083 215 1093 l 192 1083 q 86 1201 86 1179 q 192 1314 86 1221 q 196 1315 193 1315 q 254 1260 203 1315 q 307 1199 307 1204 m 789 106 q 738 35 789 86 q 675 -18 688 -18 q 581 36 661 -18 q 488 92 503 92 q 426 36 460 92 q 368 -19 393 -19 q 244 42 367 -19 l 107 113 q 92 131 92 124 l 92 853 q 51 899 92 874 q 11 943 11 924 q 57 1006 11 958 l 117 1064 l 138 1064 q 275 954 242 1004 l 275 235 q 469 133 465 133 q 493 160 493 133 l 493 724 q 489 874 493 803 l 444 910 q 413 949 413 938 q 417 967 413 963 l 518 1064 q 543 1068 522 1068 l 613 1017 q 676 958 653 988 l 676 197 q 732 157 676 192 q 789 106 789 121 "},"":{"ha":758,"x_min":4,"x_max":682,"o":"m 682 614 q 674 -108 682 58 q 576 -160 667 -117 q 407 -303 525 -185 l 397 -303 q 343 -283 378 -303 l 293 -251 q 163 -185 238 -225 q 143 -157 143 -174 q 144 -150 143 -153 l 144 -142 q 256 -28 228 -28 q 485 -156 475 -156 q 492 -149 489 -156 q 494 106 494 -140 q 438 53 478 106 q 386 1 399 1 q 365 6 372 1 q 158 113 244 72 q 90 158 90 143 l 90 885 q 40 921 82 893 q 4 957 4 944 q 6 965 4 963 l 111 1075 q 128 1076 115 1076 q 210 1029 140 1076 q 281 967 281 981 q 278 778 281 947 q 276 592 276 694 l 276 264 q 324 231 289 247 q 411 183 342 221 q 488 144 483 144 q 496 150 496 144 l 496 889 q 449 925 492 896 q 415 965 415 947 q 525 1079 415 974 q 535 1081 529 1081 q 610 1038 553 1081 q 682 978 664 999 l 682 614 m 569 1338 l 388 1083 l 350 1083 l 411 1338 l 569 1338 "},"":{"ha":883,"x_min":17,"x_max":814,"o":"m 814 733 l 813 217 q 792 171 813 188 q 743 144 783 163 q 678 111 715 133 l 619 46 q 554 0 581 0 l 542 1 q 417 33 500 25 q 289 60 329 43 l 285 60 l 278 56 q 278 57 276 56 l 278 53 l 279 40 l 281 -64 q 279 -143 282 -82 q 260 -218 278 -200 q 189 -253 251 -226 q 111 -279 161 -264 l 94 -267 l 94 139 q 56 161 94 144 q 17 199 17 179 l 18 207 q 65 256 33 224 q 94 313 94 289 l 94 638 q 90 747 94 690 q 51 775 88 751 q 22 810 22 792 l 26 822 q 143 925 122 925 l 153 924 l 260 853 l 274 763 l 278 763 q 400 857 389 857 q 754 764 508 857 l 788 751 q 814 733 814 742 m 632 538 q 628 628 632 593 q 469 674 617 636 q 290 715 322 714 l 282 711 q 276 354 276 435 q 281 263 276 306 q 617 165 571 165 q 626 228 626 165 q 629 382 626 246 q 632 538 632 521 "},"":{"ha":644,"x_min":44,"x_max":608,"o":"m 608 583 l 608 588 q 607 585 607 588 l 607 569 l 607 511 q 603 440 607 450 q 522 388 601 432 q 446 338 446 344 q 458 328 446 333 l 532 299 q 603 261 575 281 q 607 29 607 161 q 603 -165 607 24 q 511 -219 594 -175 q 419 -261 428 -264 q 425 -178 418 -235 l 425 167 q 353 201 425 171 q 268 233 278 233 q 244 226 263 233 q 226 215 226 219 l 226 -193 q 150 -244 226 -206 q 56 -285 74 -285 q 44 -264 44 -285 q 46 306 44 54 q 49 874 49 819 q 310 1064 149 917 q 324 1068 314 1068 q 422 1025 342 1068 l 528 968 q 569 936 569 954 q 514 871 569 922 q 444 819 461 819 q 344 864 436 819 q 239 915 247 913 l 231 911 l 231 606 q 313 667 249 606 q 389 729 378 729 q 481 692 401 729 q 578 642 553 657 q 608 583 607 622 m 421 381 l 421 522 q 358 558 421 528 q 282 589 297 589 q 251 574 268 589 q 232 544 235 558 q 226 397 226 517 q 228 319 226 354 q 231 244 231 250 l 233 244 q 413 361 236 244 q 421 381 421 367 "},"":{"ha":738,"x_min":33,"x_max":725,"o":"m 294 772 l 257 772 l 75 1026 l 232 1026 l 294 772 m 725 106 l 610 -7 l 601 -8 q 511 49 594 -6 q 422 93 442 93 q 324 1 414 93 l 317 1 q 264 21 300 1 q 67 125 146 89 q 33 150 33 139 q 56 179 35 151 l 56 565 q 219 639 103 583 l 311 714 q 343 735 336 735 q 485 667 358 735 q 629 585 614 600 l 629 183 q 660 160 629 178 q 677 151 668 156 q 690 143 686 146 q 696 140 694 140 q 725 113 708 131 l 725 106 m 447 158 l 447 490 l 439 499 q 339 553 436 500 q 246 594 264 594 l 240 589 q 236 389 236 525 l 236 238 q 307 200 239 236 l 418 142 l 426 142 q 447 158 447 142 "},"":{"ha":736,"x_min":17,"x_max":708,"o":"m 606 1026 l 424 772 l 386 772 l 447 1026 l 606 1026 m 708 106 l 593 -7 l 585 -8 q 494 49 578 -6 q 406 93 425 93 q 307 1 396 93 l 300 1 q 247 21 283 1 q 50 125 129 89 q 17 150 17 139 q 39 179 18 151 l 39 565 q 203 639 86 583 l 294 714 q 326 735 319 735 q 468 667 342 735 q 613 585 597 600 l 613 183 q 643 160 613 178 q 660 151 651 156 q 674 143 669 146 q 679 140 678 140 q 708 113 692 131 l 708 106 m 431 158 l 431 490 l 422 499 q 322 553 419 500 q 229 594 247 594 l 224 589 q 219 389 219 525 l 219 238 q 290 200 222 236 l 401 142 l 410 142 q 431 158 431 142 "},"":{"ha":742,"x_min":28,"x_max":719,"o":"m 539 772 l 497 772 l 339 918 l 178 772 l 138 772 l 265 1026 l 413 1026 l 539 772 m 719 106 l 604 -7 l 596 -8 q 506 49 589 -6 q 417 93 436 93 q 318 1 408 93 l 311 1 q 258 21 294 1 q 61 125 140 89 q 28 150 28 139 q 50 179 29 151 l 50 565 q 214 639 97 583 l 306 714 q 338 735 331 735 q 479 667 353 735 q 624 585 608 600 l 624 183 q 654 160 624 178 q 672 151 663 156 q 685 143 681 146 q 690 140 689 140 q 719 113 703 131 l 719 106 m 442 158 l 442 490 l 433 499 q 333 553 431 500 q 240 594 258 594 l 235 589 q 231 389 231 525 l 231 238 q 301 200 233 236 l 413 142 l 421 142 q 442 158 442 142 "},"":{"ha":751,"x_min":32,"x_max":724,"o":"m 578 938 q 436 772 563 772 q 329 801 397 772 q 233 832 263 832 q 168 772 189 832 l 140 772 q 276 938 164 938 q 381 906 313 938 q 483 875 446 875 q 553 938 532 875 l 578 938 m 724 106 l 608 -7 l 600 -8 q 510 49 593 -6 q 421 93 440 93 q 322 1 411 93 l 315 1 q 263 21 299 1 q 65 125 144 89 q 32 150 32 139 q 54 179 33 151 l 54 565 q 218 639 101 583 l 310 714 q 342 735 335 735 q 483 667 357 735 q 628 585 613 600 l 628 183 q 658 160 628 178 q 676 151 667 156 q 689 143 685 146 q 694 140 693 140 q 724 113 707 131 l 724 106 m 446 158 l 446 490 l 438 499 q 338 553 436 500 q 244 594 263 594 l 239 589 q 235 389 235 525 l 235 238 q 306 200 236 236 l 417 142 l 425 142 q 446 158 446 142 "},"":{"ha":753,"x_min":32,"x_max":724,"o":"m 606 888 q 560 829 606 875 q 497 772 514 782 l 490 772 q 385 890 385 868 q 490 1003 385 910 q 494 1004 492 1004 q 553 949 501 1004 q 606 888 606 893 m 335 888 q 289 829 335 875 q 226 772 243 782 l 219 772 q 114 890 114 868 q 219 1003 114 910 q 224 1004 221 1004 q 282 949 231 1004 q 335 888 335 893 m 724 106 l 608 -7 l 600 -8 q 510 49 593 -6 q 421 93 440 93 q 322 1 411 93 l 315 1 q 263 21 299 1 q 65 125 144 89 q 32 150 32 139 q 54 179 33 151 l 54 565 q 218 639 101 583 l 310 714 q 342 735 335 735 q 483 667 357 735 q 628 585 613 600 l 628 183 q 658 160 628 178 q 676 151 667 156 q 689 143 685 146 q 694 140 693 140 q 724 113 707 131 l 724 106 m 446 158 l 446 490 l 438 499 q 338 553 436 500 q 244 594 263 594 l 239 589 q 235 389 235 525 l 235 238 q 306 200 236 236 l 417 142 l 425 142 q 446 158 446 142 "},"":{"ha":739,"x_min":26,"x_max":718,"o":"m 421 806 q 340 772 388 772 q 260 806 293 772 q 226 886 226 839 q 260 967 226 933 q 340 1000 293 1000 q 421 967 388 1000 q 454 886 454 933 q 438 822 454 839 q 421 806 421 806 m 718 106 l 603 -7 l 594 -8 q 504 49 588 -6 q 415 93 435 93 q 317 1 407 93 l 310 1 q 257 21 293 1 q 60 125 139 89 q 26 150 26 139 q 49 179 28 151 l 49 565 q 213 639 96 583 l 304 714 q 336 735 329 735 q 478 667 351 735 q 622 585 607 600 l 622 183 q 653 160 622 178 q 670 151 661 156 q 683 143 679 146 q 689 140 688 140 q 718 113 701 131 l 718 106 m 393 938 q 340 960 371 960 q 288 938 310 960 q 265 886 265 917 q 287 833 265 854 q 340 811 308 811 q 393 833 371 811 q 415 886 415 856 q 404 927 415 917 q 393 938 393 938 m 440 158 l 440 490 l 432 499 q 332 553 431 500 q 239 594 257 594 l 233 589 q 229 389 229 525 l 229 238 q 300 200 231 236 l 411 142 l 419 142 q 440 158 440 142 "},"":{"ha":956,"x_min":36,"x_max":928,"o":"m 928 535 q 882 485 928 518 q 633 303 799 428 l 633 240 q 882 140 724 207 q 900 121 900 132 q 831 25 900 119 q 794 0 811 0 q 664 43 781 0 l 613 -7 l 604 -8 q 514 49 597 -6 q 425 93 444 93 q 326 1 417 93 l 319 1 q 267 21 303 1 q 69 125 138 94 q 36 150 36 139 q 58 179 38 151 l 58 565 q 222 639 106 583 q 314 714 253 667 q 346 735 339 735 q 575 618 356 735 q 669 679 621 639 q 726 721 719 721 l 729 721 q 783 679 738 719 q 928 535 928 556 m 642 560 l 638 556 q 633 535 633 543 l 633 361 q 640 356 633 353 l 642 357 q 707 403 658 364 q 758 453 758 444 q 642 560 758 461 m 447 150 l 447 493 l 442 499 q 343 553 440 500 q 249 594 267 594 l 243 589 q 239 389 239 525 l 239 238 q 310 200 242 236 l 421 142 l 429 142 q 447 150 442 142 "},"":{"ha":531,"x_min":31,"x_max":525,"o":"m 525 558 q 394 458 425 458 q 247 583 372 458 l 243 583 l 239 579 q 235 256 235 533 q 344 204 279 231 q 405 181 376 192 q 445 165 433 169 q 458 160 457 160 q 472 140 472 154 q 433 68 472 121 q 375 6 394 17 q 439 -89 439 -21 q 378 -187 439 -156 q 258 -212 331 -212 q 160 -204 208 -212 l 171 -182 q 229 -186 221 -186 q 293 -169 264 -186 q 328 -117 328 -151 q 208 -56 328 -44 l 258 -3 q 340 14 297 14 q 76 117 271 51 q 31 147 31 131 q 53 181 31 167 l 53 517 q 49 529 49 522 q 57 583 49 572 l 222 653 q 276 699 235 658 q 339 732 311 732 q 525 571 364 732 l 525 558 "},"":{"ha":567,"x_min":56,"x_max":536,"o":"m 315 772 l 278 772 l 96 1026 l 253 1026 l 315 772 m 536 531 q 490 481 536 514 q 242 299 407 424 l 242 236 q 490 136 332 203 q 508 117 508 128 q 439 21 508 115 q 403 -4 419 -4 q 236 50 383 -4 q 56 119 125 90 l 56 557 l 225 633 q 285 681 233 638 q 338 717 329 719 q 392 675 346 714 q 536 531 536 551 m 367 449 q 250 556 367 458 l 246 551 q 242 531 242 539 l 242 357 q 249 351 242 349 l 250 353 q 315 399 267 360 q 367 449 367 440 "},"":{"ha":567,"x_min":39,"x_max":519,"o":"m 517 1026 l 335 772 l 297 772 l 358 1026 l 517 1026 m 519 531 q 474 481 519 514 q 225 299 390 424 l 225 236 q 474 136 315 203 q 492 117 492 128 q 422 21 492 115 q 386 -4 403 -4 q 219 50 367 -4 q 39 119 108 90 l 39 557 l 208 633 q 268 681 217 638 q 321 717 313 719 q 375 675 329 714 q 519 531 519 551 m 350 449 q 233 556 350 458 l 229 551 q 225 531 225 539 l 225 357 q 232 351 225 349 l 233 353 q 299 399 250 360 q 350 449 350 440 "},"":{"ha":567,"x_min":54,"x_max":535,"o":"m 499 772 l 457 772 l 299 918 l 138 772 l 97 772 l 225 1026 l 372 1026 l 499 772 m 535 531 q 489 481 535 514 q 240 299 406 424 l 240 236 q 489 136 331 203 q 507 117 507 128 q 438 21 507 115 q 401 -4 419 -4 q 235 50 383 -4 q 54 119 124 90 l 54 557 l 224 633 q 283 681 232 638 q 336 717 328 719 q 390 675 344 714 q 535 531 535 551 m 365 449 q 249 556 365 458 l 244 551 q 240 531 240 539 l 240 357 q 247 351 240 349 l 249 353 q 314 399 265 360 q 365 449 365 440 "},"":{"ha":567,"x_min":61,"x_max":553,"o":"m 553 888 q 507 829 553 875 q 444 772 461 782 l 438 772 q 332 890 332 868 q 438 1003 332 910 q 442 1004 439 1004 q 500 949 449 1004 q 553 888 553 893 m 282 888 q 236 829 282 875 q 174 772 190 782 l 167 772 q 61 890 61 868 q 167 1003 61 910 q 171 1004 168 1004 q 229 949 178 1004 q 282 888 282 893 m 549 531 q 503 481 549 514 q 254 299 419 424 l 254 236 q 503 136 344 203 q 521 117 521 128 q 451 21 521 115 q 415 -4 433 -4 q 249 50 397 -4 q 68 119 138 90 l 68 557 l 238 633 q 297 681 246 638 q 350 717 342 719 q 404 675 358 714 q 549 531 549 551 m 379 449 q 263 556 379 458 l 258 551 q 254 531 254 539 l 254 357 q 261 351 254 349 l 263 353 q 328 399 279 360 q 379 449 379 440 "},"":{"ha":340,"x_min":-60,"x_max":328,"o":"m 160 772 l 122 772 l -60 1026 l 97 1026 l 160 772 m 328 122 q 281 51 328 103 q 215 0 233 0 q 119 49 197 0 q 43 110 43 96 q 58 132 43 114 q 72 153 72 150 l 72 557 l 31 603 q 29 617 29 607 q 92 672 29 625 q 163 722 154 722 q 222 675 175 722 q 271 618 271 629 q 254 586 271 597 l 254 182 q 297 156 278 168 q 328 122 328 138 "},"":{"ha":340,"x_min":29,"x_max":357,"o":"m 357 1026 l 175 772 l 138 772 l 199 1026 l 357 1026 m 328 122 q 281 51 328 103 q 215 0 233 0 q 119 49 197 0 q 43 110 43 96 q 58 132 43 114 q 72 153 72 150 l 72 557 l 31 603 q 29 617 29 607 q 92 672 29 625 q 163 722 154 722 q 222 675 175 722 q 271 618 271 629 q 254 586 271 597 l 254 182 q 297 156 278 168 q 328 122 328 138 "},"":{"ha":340,"x_min":-39,"x_max":363,"o":"m 363 772 l 322 772 l 163 918 l 1 772 l -39 772 l 90 1026 l 236 1026 l 363 772 m 328 122 q 281 51 328 103 q 215 0 233 0 q 119 49 197 0 q 43 110 43 96 q 58 132 43 114 q 72 153 72 150 l 72 557 l 31 603 q 29 617 29 607 q 92 672 29 625 q 163 722 154 722 q 222 675 175 722 q 271 618 271 629 q 254 586 271 597 l 254 182 q 297 156 278 168 q 328 122 328 138 "},"":{"ha":340,"x_min":-79,"x_max":413,"o":"m 413 888 q 367 829 413 875 q 304 772 321 782 l 297 772 q 192 890 192 868 q 297 1003 192 910 q 301 1004 299 1004 q 360 949 308 1004 q 413 888 413 893 m 142 888 q 96 829 142 875 q 33 772 50 782 l 26 772 q -79 890 -79 868 q 26 1003 -79 910 q 31 1004 28 1004 q 89 949 38 1004 q 142 888 142 893 m 328 122 q 281 51 328 103 q 215 0 233 0 q 119 49 197 0 q 43 110 43 96 q 58 132 43 114 q 72 153 72 150 l 72 557 l 31 603 q 29 617 29 607 q 92 672 29 625 q 163 722 154 722 q 222 675 175 722 q 271 618 271 629 q 254 586 271 597 l 254 182 q 297 156 278 168 q 328 122 328 138 "},"":{"ha":685,"x_min":25,"x_max":629,"o":"m 629 688 q 625 157 629 397 q 468 103 619 151 q 410 46 447 96 q 344 -4 369 -4 q 264 26 326 -4 l 182 67 q 111 93 158 76 q 58 132 58 117 l 58 560 q 85 638 58 619 l 165 675 q 219 703 172 682 q 286 736 274 728 l 286 740 l 181 815 l 75 733 l 36 783 l 124 853 q 25 931 25 918 q 86 993 25 943 q 165 1043 149 1043 q 275 971 201 1024 l 371 1044 l 410 994 l 329 932 l 542 778 q 596 740 564 772 q 629 688 629 708 m 451 451 q 449 535 451 460 q 447 621 447 572 q 388 672 436 635 q 325 708 339 708 q 275 689 311 708 q 240 658 240 671 l 240 357 q 244 236 240 272 q 333 192 256 225 q 435 144 410 160 l 436 144 q 447 165 447 144 q 449 275 447 226 q 451 385 451 372 l 451 451 "},"":{"ha":779,"x_min":35,"x_max":753,"o":"m 576 938 q 435 772 561 772 q 328 801 397 772 q 232 832 261 832 q 167 772 188 832 l 139 772 q 275 938 163 938 q 379 906 311 938 q 482 875 444 875 q 551 938 531 875 l 576 938 m 753 128 q 751 124 753 125 q 643 4 724 89 l 638 4 l 453 100 q 444 113 442 106 l 474 149 l 474 531 q 407 564 474 539 q 325 593 374 578 q 275 604 301 596 q 267 593 267 600 l 267 194 q 297 150 267 172 q 329 118 329 126 q 285 60 329 111 q 229 0 247 17 q 208 -4 225 -4 q 131 49 199 -4 q 51 113 65 99 l 51 124 l 85 165 l 85 497 q 82 558 85 550 q 35 608 81 563 l 35 625 q 97 683 44 639 q 158 729 150 729 q 218 692 174 729 q 251 660 229 681 q 275 639 274 640 l 383 742 l 407 742 l 574 679 q 661 631 661 646 q 656 617 661 622 l 656 199 q 713 167 686 181 q 753 128 753 143 "},"":{"ha":686,"x_min":53,"x_max":628,"o":"m 344 772 l 307 772 l 125 1026 l 282 1026 l 344 772 m 628 606 q 626 306 628 399 q 624 175 626 289 q 543 121 621 154 q 440 75 446 81 q 401 28 435 71 q 358 -7 376 -7 l 204 65 q 53 146 92 119 l 53 556 q 136 594 53 561 q 242 647 219 628 l 326 717 q 349 725 336 725 q 404 711 375 725 l 594 646 q 628 606 628 636 m 446 163 l 446 518 q 243 593 256 593 q 235 589 236 593 l 235 258 q 328 201 235 249 q 432 154 421 154 q 446 163 446 154 "},"":{"ha":686,"x_min":38,"x_max":613,"o":"m 585 1026 l 403 772 l 365 772 l 426 1026 l 585 1026 m 613 606 q 611 306 613 399 q 608 175 611 289 q 528 121 606 154 q 425 75 431 81 q 386 28 419 71 q 343 -7 361 -7 l 189 65 q 38 146 76 119 l 38 556 q 121 594 38 561 q 226 647 204 628 l 311 717 q 333 725 322 725 q 389 711 360 725 l 579 646 q 613 606 613 636 m 431 163 l 431 518 q 228 593 240 593 q 219 589 222 593 l 219 258 q 313 201 219 249 q 417 154 406 154 q 431 163 431 154 "},"":{"ha":686,"x_min":50,"x_max":625,"o":"m 543 772 l 503 772 l 344 918 l 182 772 l 142 772 l 271 1026 l 417 1026 l 543 772 m 625 606 q 624 306 625 399 q 621 175 624 289 q 540 121 618 154 q 438 75 443 81 q 399 28 432 71 q 356 -7 374 -7 l 201 65 q 50 146 89 119 l 50 556 q 133 594 50 561 q 239 647 217 628 l 324 717 q 346 725 333 725 q 401 711 372 725 l 592 646 q 625 606 625 636 m 443 163 l 443 518 q 240 593 253 593 q 232 589 233 593 l 232 258 q 325 201 232 249 q 429 154 418 154 q 443 163 443 154 "},"":{"ha":686,"x_min":56,"x_max":631,"o":"m 569 938 q 428 772 554 772 q 321 801 389 772 q 225 832 254 832 q 160 772 181 832 l 132 772 q 268 938 156 938 q 372 906 304 938 q 475 875 438 875 q 544 938 524 875 l 569 938 m 631 606 q 629 306 631 399 q 626 175 629 289 q 546 121 624 154 q 443 75 449 81 q 404 28 438 71 q 361 -7 379 -7 l 207 65 q 56 146 94 119 l 56 556 q 139 594 56 561 q 244 647 222 628 l 329 717 q 351 725 340 725 q 407 711 378 725 l 597 646 q 631 606 631 636 m 449 163 l 449 518 q 246 593 258 593 q 238 589 239 593 l 238 258 q 331 201 238 249 q 435 154 424 154 q 449 163 449 154 "},"":{"ha":686,"x_min":58,"x_max":633,"o":"m 590 888 q 544 829 590 875 q 482 772 499 782 l 475 772 q 369 890 369 868 q 475 1003 369 910 q 479 1004 476 1004 q 538 949 486 1004 q 590 888 590 893 m 319 888 q 274 829 319 875 q 211 772 228 782 l 204 772 q 99 890 99 868 q 204 1003 99 910 q 208 1004 206 1004 q 267 949 215 1004 q 319 888 319 893 m 633 606 q 632 306 633 399 q 629 175 632 289 q 549 121 626 154 q 446 75 451 81 q 407 28 440 71 q 364 -7 382 -7 l 210 65 q 58 146 97 119 l 58 556 q 142 594 58 561 q 247 647 225 628 l 332 717 q 354 725 342 725 q 410 711 381 725 l 600 646 q 633 606 633 636 m 451 163 l 451 518 q 249 593 261 593 q 240 589 242 593 l 240 258 q 333 201 240 249 q 438 154 426 154 q 451 163 451 154 "},"":{"ha":765,"x_min":7,"x_max":758,"o":"m 457 742 q 434 688 457 711 q 381 665 411 665 q 326 688 349 665 q 304 742 304 710 q 326 796 304 774 q 381 818 349 818 q 435 796 413 818 q 457 742 457 774 m 758 397 l 7 397 l 7 517 l 758 517 l 758 397 m 458 176 q 435 122 458 144 q 381 100 413 100 q 326 122 349 100 q 304 176 304 144 q 326 231 304 208 q 381 254 349 254 q 436 232 414 254 q 458 176 458 210 "},"":{"ha":686,"x_min":54,"x_max":629,"o":"m 629 606 q 628 306 629 399 q 625 175 628 289 q 544 121 622 154 q 443 76 446 79 q 403 28 429 63 q 360 -7 376 -7 q 200 69 319 15 l 156 -18 l 119 0 l 164 88 q 54 146 85 125 l 54 556 q 138 594 54 561 q 242 646 214 624 l 328 717 q 350 725 339 725 q 410 710 372 725 q 468 685 467 686 l 507 761 l 543 743 l 507 672 l 576 651 q 629 615 629 632 l 629 606 m 394 539 q 244 593 253 593 q 236 589 239 593 l 236 258 l 247 250 l 394 539 m 447 163 l 447 518 l 432 525 l 282 229 q 433 154 414 154 q 447 163 447 154 "},"":{"ha":790,"x_min":3,"x_max":772,"o":"m 343 772 l 306 772 l 124 1026 l 281 1026 l 343 772 m 772 128 l 771 122 l 679 1 q 663 -3 672 -3 q 565 43 640 -3 q 465 89 490 89 q 422 47 460 89 l 378 -3 q 372 -4 375 -3 l 365 -4 q 154 72 358 -4 q 29 138 29 118 q 44 163 29 143 q 58 188 58 183 q 63 240 63 203 l 63 400 q 60 471 63 407 q 58 544 58 503 q 25 568 53 551 q 3 599 3 581 l 4 607 l 65 669 q 126 718 114 718 q 215 656 135 718 q 240 641 228 653 q 253 619 253 629 q 249 606 253 617 q 244 590 244 594 l 244 233 q 451 146 324 197 l 456 146 l 468 158 l 468 536 q 414 582 467 539 q 410 599 408 594 l 414 607 q 543 711 511 711 q 606 663 549 711 q 664 607 664 615 q 650 574 664 592 l 650 208 l 663 196 q 725 165 693 183 q 772 128 772 139 "},"":{"ha":790,"x_min":-6,"x_max":764,"o":"m 535 1026 l 353 772 l 315 772 l 376 1026 l 535 1026 m 764 128 l 763 122 l 671 1 q 654 -3 664 -3 q 557 43 632 -3 q 457 89 482 89 q 414 47 451 89 l 369 -3 q 364 -4 367 -3 l 357 -4 q 146 72 350 -4 q 21 138 21 118 q 35 163 21 143 q 50 188 50 183 q 54 240 54 203 l 54 400 q 51 471 54 407 q 50 544 50 503 q 17 568 44 551 q -6 599 -6 581 l -4 607 l 57 669 q 118 718 106 718 q 207 656 126 718 q 232 641 219 653 q 244 619 244 629 q 240 606 244 617 q 236 590 236 594 l 236 233 q 443 146 315 197 l 447 146 l 460 158 l 460 536 q 406 582 458 539 q 401 599 400 594 l 406 607 q 535 711 503 711 q 597 663 540 711 q 656 607 656 615 q 642 574 656 592 l 642 208 l 654 196 q 717 165 685 183 q 764 128 764 139 "},"":{"ha":790,"x_min":1,"x_max":771,"o":"m 540 772 l 500 772 l 340 918 l 179 772 l 139 772 l 268 1026 l 414 1026 l 540 772 m 771 128 l 769 122 l 678 1 q 661 -3 672 -3 q 564 43 639 -3 q 464 89 489 89 q 421 47 458 89 l 376 -3 q 371 -4 374 -3 l 364 -4 q 153 72 357 -4 q 28 138 28 118 q 42 163 28 143 q 57 188 57 183 q 61 240 61 203 l 61 400 q 58 471 61 407 q 57 544 57 503 q 24 568 51 551 q 1 599 1 581 l 3 607 l 64 669 q 125 718 113 718 q 214 656 132 718 q 239 641 226 653 q 251 619 251 629 q 247 606 251 617 q 243 590 243 594 l 243 233 q 450 146 322 197 l 454 146 l 467 158 l 467 536 q 413 582 464 539 q 408 599 406 594 l 413 607 q 542 711 511 711 q 604 663 547 711 q 663 607 663 615 q 649 574 663 592 l 649 208 l 661 196 q 724 165 692 183 q 771 128 771 139 "},"":{"ha":790,"x_min":4,"x_max":774,"o":"m 594 888 q 549 829 594 875 q 486 772 503 782 l 479 772 q 374 890 374 868 q 479 1003 374 910 q 483 1004 481 1004 q 542 949 490 1004 q 594 888 594 893 m 324 888 q 278 829 324 875 q 215 772 232 782 l 208 772 q 103 890 103 868 q 208 1003 103 910 q 213 1004 210 1004 q 271 949 219 1004 q 324 888 324 893 m 774 128 l 772 122 l 681 1 q 664 -3 675 -3 q 567 43 642 -3 q 467 89 492 89 q 424 47 461 89 l 379 -3 q 374 -4 376 -3 l 367 -4 q 156 72 360 -4 q 31 138 31 118 q 45 163 31 143 q 60 188 60 183 q 64 240 64 203 l 64 400 q 61 471 64 407 q 60 544 60 503 q 26 568 54 551 q 4 599 4 581 l 6 607 l 67 669 q 128 718 115 718 q 217 656 136 718 q 242 641 229 653 q 254 619 254 629 q 250 606 254 617 q 246 590 246 594 l 246 233 q 453 146 325 197 l 457 146 l 469 158 l 469 536 q 415 582 467 539 q 411 599 408 594 l 415 607 q 544 711 514 711 q 607 663 550 711 q 665 607 665 615 q 651 574 665 592 l 651 208 l 664 196 q 726 165 694 183 q 774 128 774 139 "},"":{"ha":697,"x_min":-4,"x_max":650,"o":"m 544 1026 l 363 772 l 325 772 l 386 1026 l 544 1026 m 650 582 q 633 557 644 575 l 625 -171 q 456 -275 625 -183 l 451 -275 l 443 -267 l 443 -250 q 444 -125 443 -181 q 447 -1 447 -17 l 447 0 q 447 2 447 0 q 447 7 447 4 q 448 15 447 10 q 449 25 449 19 q 449 61 451 49 q 440 78 447 81 l 360 -6 q 346 -7 357 -7 q 232 42 336 -7 q 165 73 199 57 q 119 95 132 89 q 104 101 106 101 q 69 114 92 106 q 44 136 44 125 q 51 152 44 142 q 58 164 58 163 l 58 172 q 60 236 58 207 q 63 303 63 294 l 63 528 q 26 557 58 533 q -4 590 -4 579 q 60 656 1 597 q 122 707 111 707 q 257 599 149 707 l 257 593 q 244 561 257 581 l 244 235 q 261 221 244 228 q 431 143 306 207 l 447 143 l 447 532 q 393 590 447 536 l 393 599 q 449 660 393 608 q 519 711 504 711 q 592 651 536 711 q 650 582 650 592 "},"":{"ha":785,"x_min":8,"x_max":729,"o":"m 729 167 q 658 107 729 133 q 542 53 583 81 l 438 -18 q 429 -19 436 -19 q 344 4 403 -19 q 261 29 289 29 q 254 25 256 29 l 254 -231 q 158 -287 215 -258 q 60 -324 86 -324 q 71 -306 60 -312 l 67 121 l 25 142 q 24 151 26 146 l 25 163 q 71 211 38 175 l 71 653 q 33 683 63 661 q 8 715 8 703 q 17 732 8 724 q 113 819 31 747 q 140 832 128 832 q 144 831 143 832 l 239 703 l 288 611 l 425 697 q 444 699 431 699 q 585 638 454 699 q 729 560 715 578 l 729 167 m 543 146 l 543 468 q 406 524 529 483 q 265 560 288 563 l 261 556 q 257 318 257 436 l 257 240 q 364 206 263 226 l 376 201 l 535 142 l 543 146 "},"":{"ha":697,"x_min":3,"x_max":657,"o":"m 601 888 q 556 829 601 875 q 493 772 510 782 l 486 772 q 381 890 381 868 q 486 1003 381 910 q 490 1004 488 1004 q 549 949 497 1004 q 601 888 601 893 m 331 888 q 285 829 331 875 q 222 772 239 782 l 215 772 q 110 890 110 868 q 215 1003 110 910 q 219 1004 217 1004 q 278 949 226 1004 q 331 888 331 893 m 657 582 q 640 557 650 575 l 632 -171 q 463 -275 632 -183 l 458 -275 l 450 -267 l 450 -250 q 451 -125 450 -181 q 454 -1 454 -17 l 454 0 q 454 2 454 0 q 454 7 454 4 q 455 15 454 10 q 456 25 456 19 q 456 61 458 49 q 447 78 453 81 l 367 -6 q 353 -7 364 -7 q 239 42 343 -7 q 172 73 206 57 q 126 95 139 89 q 111 101 113 101 q 76 114 99 106 q 51 136 51 125 q 58 152 51 142 q 65 164 65 163 l 65 172 q 67 236 65 207 q 69 303 69 294 l 69 528 q 33 557 65 533 q 3 590 3 579 q 67 656 8 597 q 129 707 118 707 q 264 599 156 707 l 264 593 q 251 561 264 581 l 251 235 q 268 221 251 228 q 438 143 313 207 l 454 143 l 454 532 q 400 590 454 536 l 400 599 q 456 660 400 608 q 526 711 511 711 q 599 651 543 711 q 657 582 657 592 "},"":{"ha":340,"x_min":29,"x_max":328,"o":"m 328 122 q 281 51 328 103 q 215 0 233 0 q 119 49 197 0 q 43 110 43 96 q 58 132 43 114 q 72 153 72 150 l 72 557 l 31 603 q 29 617 29 607 q 92 672 29 625 q 163 722 154 722 q 222 675 175 722 q 271 618 271 629 q 254 586 271 597 l 254 182 q 297 156 278 168 q 328 122 328 138 "},"":{"ha":610,"x_min":-1,"x_max":603,"o":"m -1 460 l 92 506 l 92 892 q 167 942 108 911 q 251 989 239 979 q 367 1090 272 1008 q 382 1092 371 1092 q 489 1033 392 1092 q 599 960 589 974 q 603 944 603 953 q 553 885 603 933 q 489 829 528 861 l 490 829 l 482 828 q 385 882 469 828 q 279 938 300 938 q 281 603 279 765 l 322 624 l 376 517 l 282 468 l 282 256 q 240 206 282 231 q 176 174 208 190 l 176 164 l 240 164 q 303 165 268 165 l 475 165 q 553 150 553 165 q 497 17 553 144 l 481 0 q 136 -1 171 0 l 49 -4 q 28 13 28 -4 q 92 131 28 36 l 92 372 l 53 353 l -1 460 "},"":{"ha":414,"x_min":4,"x_max":403,"o":"m 4 449 l 106 500 q 104 974 106 699 q 185 1017 114 986 q 274 1049 260 1049 q 286 1044 281 1049 l 286 918 q 285 877 286 914 q 284 760 285 840 q 283 590 283 681 l 325 613 l 374 517 l 282 471 l 282 226 q 350 178 288 218 q 403 125 403 144 q 360 58 403 106 q 299 -1 326 21 q 292 -3 296 -1 l 286 -3 q 274 -1 278 -3 q 164 69 260 11 q 79 131 79 121 q 96 164 79 142 q 97 206 96 189 q 98 223 97 214 q 99 238 99 232 q 100 246 100 243 l 104 379 l 53 353 l 4 449 "},"":{"ha":1047,"x_min":42,"x_max":1013,"o":"m 1013 904 l 1013 897 q 1011 892 1011 894 q 960 829 993 871 q 906 782 918 782 q 639 892 688 892 l 635 888 q 631 681 631 854 l 635 676 q 964 664 744 675 l 974 656 l 974 651 q 910 499 921 499 l 631 499 l 631 258 q 800 206 631 251 q 969 133 969 160 q 928 54 969 114 q 871 -6 886 -6 q 867 -4 868 -6 q 725 44 772 29 q 583 85 635 75 q 490 89 563 89 q 386 -12 389 -12 q 292 19 360 -12 l 199 64 l 100 101 q 54 131 78 111 q 51 308 51 183 q 46 575 51 418 q 42 842 42 753 q 68 883 42 869 l 203 956 q 321 1065 256 1010 l 322 1065 q 472 1004 333 1065 q 618 938 611 944 l 668 1000 q 733 1049 713 1049 q 824 1015 756 1049 l 914 968 l 974 943 q 1013 904 1013 925 m 443 161 l 443 431 q 439 829 443 633 q 336 879 429 839 q 228 918 249 918 q 231 457 228 699 q 236 246 229 400 q 244 238 239 239 q 348 192 304 211 q 412 165 392 174 q 431 156 432 156 q 443 161 443 156 "},"":{"ha":954,"x_min":54,"x_max":922,"o":"m 922 526 q 876 476 922 510 q 628 294 793 419 l 628 232 q 876 132 718 199 q 894 113 894 124 q 825 17 894 111 q 789 -8 806 -8 q 485 97 758 -8 q 443 78 457 86 q 404 29 435 71 q 360 -7 379 -7 l 206 65 q 54 146 100 115 l 54 556 q 138 594 54 561 q 242 646 214 624 l 328 717 q 350 725 339 725 q 406 711 376 725 q 618 633 469 692 q 724 713 713 717 q 778 671 732 711 q 922 526 922 547 m 636 551 q 626 457 629 544 q 628 353 628 422 q 635 347 633 347 l 636 349 q 701 394 653 356 q 753 444 753 436 q 636 551 753 453 m 442 156 l 442 521 q 244 593 271 593 q 236 589 239 593 l 236 258 q 329 201 236 249 q 433 154 422 154 q 442 156 439 154 "},"":{"ha":693,"x_min":29,"x_max":625,"o":"m 625 160 l 625 614 l 613 632 q 443 739 451 739 q 342 650 425 739 l 333 649 q 269 686 315 649 q 224 743 224 725 l 224 919 l 228 924 q 342 872 249 924 q 443 822 436 822 q 460 826 450 822 l 565 928 q 567 938 567 929 q 549 963 567 957 l 392 1022 q 321 1053 371 1029 q 288 1065 294 1065 q 203 1004 264 1065 l 113 954 q 42 903 42 917 l 42 675 q 71 607 42 628 l 176 531 q 215 510 206 510 q 232 514 222 510 q 325 599 321 599 q 431 535 340 599 q 444 510 443 525 l 443 518 q 444 365 443 467 l 447 151 l 442 146 l 296 221 q 138 294 151 294 q 76 240 125 294 q 29 172 29 189 q 88 118 29 144 q 168 83 126 100 l 358 -10 l 381 -10 q 454 69 399 11 q 553 110 464 76 q 625 160 625 136 m 119 1339 l 246 1085 l 393 1085 l 521 1339 l 481 1339 l 319 1193 l 161 1339 l 119 1339 "},"":{"ha":644,"x_min":43,"x_max":590,"o":"m 524 1026 l 394 772 l 247 772 l 122 1026 l 163 1026 l 321 881 l 482 1026 l 524 1026 m 590 383 q 588 265 590 371 q 586 146 586 213 q 508 108 572 128 q 433 81 447 92 q 394 29 429 78 q 347 -7 367 -7 q 235 22 328 -7 l 114 60 q 43 85 86 68 l 43 101 l 117 203 q 149 229 135 229 q 288 193 175 229 q 400 158 396 157 l 404 163 l 404 304 q 382 331 404 317 q 346 346 360 346 l 246 246 q 236 244 242 244 q 56 333 208 244 l 56 565 q 143 601 86 585 q 233 632 217 624 q 269 675 236 633 q 317 711 297 711 l 479 644 q 533 600 533 622 q 481 533 533 590 q 417 478 429 478 q 338 511 406 478 q 246 553 253 550 l 242 553 l 238 549 l 238 457 q 242 436 238 449 q 338 386 281 408 l 342 388 q 457 486 347 393 l 461 486 q 465 488 463 488 q 533 444 478 488 q 590 388 590 403 l 590 383 "},"":{"ha":758,"x_min":4,"x_max":682,"o":"m 574 1199 q 528 1140 574 1186 q 465 1083 482 1093 l 458 1083 q 353 1201 353 1179 q 458 1314 353 1221 q 463 1315 460 1315 q 521 1260 469 1315 q 574 1199 574 1204 m 303 1199 q 257 1140 303 1186 q 194 1083 211 1093 l 188 1083 q 82 1201 82 1179 q 188 1314 82 1221 q 192 1315 189 1315 q 250 1260 199 1315 q 303 1199 303 1204 m 682 614 q 674 -108 682 58 q 576 -160 667 -117 q 407 -303 525 -185 l 397 -303 q 343 -283 378 -303 l 293 -251 q 163 -185 238 -225 q 143 -157 143 -174 q 144 -150 143 -153 l 144 -142 q 256 -28 228 -28 q 485 -156 475 -156 q 492 -149 489 -156 q 494 106 494 -140 q 438 53 478 106 q 386 1 399 1 q 365 6 372 1 q 158 113 244 72 q 90 158 90 143 l 90 885 q 40 921 82 893 q 4 957 4 944 q 6 965 4 963 l 111 1075 q 128 1076 115 1076 q 210 1029 140 1076 q 281 967 281 981 q 278 778 281 947 q 276 592 276 694 l 276 264 q 324 231 289 247 q 411 183 342 221 q 488 144 483 144 q 496 150 496 144 l 496 889 q 449 925 492 896 q 415 965 415 947 q 525 1079 415 974 q 535 1081 529 1081 q 610 1038 553 1081 q 682 978 664 999 l 682 614 "},"":{"ha":413,"x_min":-115,"x_max":404,"o":"m 371 956 q 351 983 371 968 q 268 1036 342 992 q 196 1065 224 1064 q 139 1036 175 1065 q 79 981 92 997 q 75 964 75 975 q 129 907 75 940 q 185 871 185 876 l 185 617 l 172 607 q 57 522 144 590 q 53 511 53 518 q 117 465 53 492 q 181 435 181 439 l 181 -131 q 172 -136 181 -136 q 7 -46 157 -129 q -61 -101 -10 -46 q -115 -171 -115 -158 q 83 -292 -115 -189 l 113 -292 l 210 -194 q 344 -117 268 -164 q 363 -60 363 -100 q 364 -21 363 -42 q 365 -5 364 -14 q 366 9 365 4 q 367 17 367 14 l 367 528 q 301 563 367 535 q 222 600 231 592 l 222 604 q 301 654 233 614 q 367 701 363 690 q 368 829 367 792 l 371 956 m 3 1339 l 129 1085 l 276 1085 l 404 1339 l 364 1339 l 203 1193 l 44 1339 l 3 1339 "},"":{"ha":392,"x_min":-10,"x_max":392,"o":"m 392 1026 l 263 772 l 115 772 l -10 1026 l 31 1026 l 189 881 l 350 1026 l 392 1026 m 338 140 q 333 -31 338 100 q 333 -201 331 -136 l 325 -212 l 258 -242 l 211 -272 q 160 -292 179 -292 q 147 -249 147 -292 q 149 -96 147 -164 q 151 57 151 40 l 151 129 q 7 208 138 146 l 7 213 q 69 264 7 222 q 151 328 140 314 l 151 535 q 119 558 151 542 q 89 593 89 576 q 206 713 89 603 l 222 713 l 288 667 q 338 618 338 632 l 338 539 l 333 419 q 251 358 321 400 q 185 307 185 314 q 260 264 206 286 q 338 217 311 243 l 338 140 "},"":{"ha":485,"x_min":56,"x_max":546,"o":"m 546 935 l 544 929 l 436 817 l 428 817 q 344 858 407 817 q 261 900 282 900 q 250 863 253 900 q 242 499 246 801 l 233 -222 q 221 -235 228 -231 q 100 -289 179 -251 q 69 -301 76 -301 q 56 -293 56 -301 l 56 69 q 68 908 56 581 q 158 953 89 922 q 238 992 226 983 l 317 1061 l 333 1061 q 546 935 546 965 "},"":{"ha":678,"x_min":7,"x_max":669,"o":"m 669 943 l 622 829 l 504 858 l 467 694 l 572 694 l 554 618 l 449 618 l 313 28 q 307 -7 307 7 q 339 -72 307 -49 l 332 -89 q 135 -193 236 -117 l 7 -67 l 26 -47 l 69 -89 l 161 -32 l 311 618 l 247 618 l 265 694 l 329 694 l 367 858 q 547 975 478 924 l 669 943 "},"":{"ha":483,"x_min":42,"x_max":443,"o":"m 443 772 l 401 772 l 243 918 l 82 772 l 42 772 l 169 1026 l 317 1026 l 443 772 "},"":{"ha":453,"x_min":26,"x_max":428,"o":"m 428 1032 l 299 778 l 151 778 l 26 1032 l 65 1032 l 225 886 l 386 1032 l 428 1032 "},"":{"ha":465,"x_min":32,"x_max":433,"o":"m 433 1029 q 379 858 422 928 q 232 775 325 775 q 85 858 138 775 q 32 1029 40 928 l 58 1029 q 231 893 100 893 q 341 930 294 893 q 404 1029 388 967 l 433 1029 "},"":{"ha":182,"x_min":15,"x_max":164,"o":"m 164 929 l 90 854 l 15 929 l 90 1004 l 164 929 "},"":{"ha":296,"x_min":33,"x_max":261,"o":"m 228 818 q 147 785 194 785 q 67 818 100 785 q 33 899 33 851 q 67 979 33 946 q 147 1013 100 1013 q 228 979 194 1013 q 261 899 261 946 q 244 835 261 851 q 228 818 228 818 m 200 951 q 147 972 178 972 q 94 951 117 972 q 72 899 72 929 q 94 845 72 867 q 147 824 115 824 q 200 846 178 824 q 222 899 222 868 q 211 940 222 929 q 200 951 200 951 "},"":{"ha":347,"x_min":35,"x_max":342,"o":"m 342 -179 q 171 -253 251 -253 q 74 -220 114 -253 q 35 -135 35 -187 q 118 11 35 -68 l 147 11 q 107 -67 107 -33 q 151 -151 107 -114 q 244 -190 194 -190 q 331 -161 286 -190 l 342 -179 "},"":{"ha":517,"x_min":39,"x_max":476,"o":"m 476 938 q 335 772 461 772 q 228 801 297 772 q 132 832 161 832 q 67 772 88 832 l 39 772 q 175 938 63 938 q 279 906 211 938 q 382 875 344 875 q 451 938 431 875 l 476 938 "},"":{"ha":482,"x_min":39,"x_max":463,"o":"m 463 1029 l 281 776 l 242 776 l 303 1029 l 463 1029 m 260 1029 l 78 776 l 39 776 l 101 1029 l 260 1029 "},"":{"ha":850,"x_min":15,"x_max":832,"o":"m 832 0 l 15 0 l 442 944 l 832 0 m 671 56 l 400 714 l 100 56 l 671 56 "},"":{"ha":1032,"x_min":39,"x_max":992,"o":"m 992 0 l 611 0 l 626 206 q 801 531 801 261 q 732 778 801 675 q 514 893 653 893 q 300 781 379 893 q 229 540 229 681 q 404 206 229 272 l 419 0 l 39 0 l 39 213 l 64 213 q 174 126 67 126 l 358 126 l 358 172 q 144 304 229 197 q 63 542 63 407 q 201 839 63 725 q 518 944 329 944 q 832 839 706 944 q 969 544 969 726 q 890 308 969 406 q 672 172 811 211 l 672 126 l 860 126 q 967 213 960 126 l 992 213 l 992 0 "},"":{"ha":735,"x_min":35,"x_max":689,"o":"m 689 169 q 549 -19 667 -19 q 429 217 429 -19 q 456 524 429 351 l 296 524 q 288 408 292 464 q 281 322 283 353 q 276 265 278 290 q 274 236 274 239 q 164 -19 239 -19 q 121 -3 139 -19 q 103 38 103 13 q 150 135 103 67 q 204 310 197 203 l 219 524 l 200 524 q 115 499 149 524 q 58 428 90 479 l 35 428 q 106 575 61 531 q 254 624 157 624 l 689 624 l 689 524 l 531 524 q 504 213 504 365 q 589 94 504 94 q 664 169 656 94 l 689 169 "},"":{"ha":815,"x_min":50,"x_max":764,"o":"m 764 317 l 50 317 l 50 379 l 764 379 l 764 317 "},"":{"ha":1510,"x_min":50,"x_max":1460,"o":"m 1460 317 l 50 317 l 50 379 l 1460 379 l 1460 317 "},"":{"ha":343,"x_min":11,"x_max":329,"o":"m 329 701 q 319 696 329 696 q 240 721 299 696 q 164 763 183 747 l 97 932 q 21 1096 53 1038 q 11 1128 11 1114 q 28 1143 11 1143 q 149 1110 33 1143 q 185 1085 179 1101 q 288 811 225 965 q 329 701 329 722 "},"":{"ha":343,"x_min":14,"x_max":332,"o":"m 332 1128 q 322 1096 332 1114 q 179 763 265 989 q 103 721 160 747 q 24 696 44 696 q 14 701 14 696 q 31 757 14 722 q 96 921 61 824 q 158 1085 136 1033 q 194 1110 164 1101 q 315 1143 249 1126 q 332 1128 332 1146 "},"":{"ha":383,"x_min":11,"x_max":375,"o":"m 374 206 q 286 19 344 138 l 178 -203 l 174 -207 q 11 -258 53 -258 q 33 -197 11 -237 q 135 26 53 -164 q 207 174 167 101 q 356 215 314 215 q 370 213 365 215 q 374 206 375 211 "},"":{"ha":547,"x_min":24,"x_max":525,"o":"m 525 706 q 504 693 525 693 q 360 743 479 693 q 308 847 353 747 l 256 971 l 256 975 l 247 992 l 247 993 q 193 1132 193 1106 q 210 1144 193 1144 q 282 1118 215 1144 q 364 1086 331 1100 q 525 714 403 968 l 525 706 m 343 707 q 339 693 343 697 q 333 692 336 693 l 326 692 q 251 714 310 692 q 168 751 182 728 q 166 758 168 753 q 160 774 164 764 q 151 796 156 785 q 40 1078 88 976 q 24 1135 24 1114 q 33 1140 24 1140 q 114 1114 56 1140 q 189 1074 176 1086 q 257 904 250 918 q 333 739 289 825 q 343 707 343 721 "},"":{"ha":549,"x_min":25,"x_max":526,"o":"m 526 1122 l 440 939 q 365 750 392 833 q 282 717 349 742 q 207 692 215 692 q 194 704 194 692 q 249 843 194 733 q 257 861 246 846 l 257 865 q 294 953 264 872 l 325 1029 q 361 1093 349 1086 q 432 1121 379 1103 q 506 1143 497 1142 l 514 1143 q 526 1122 526 1143 m 344 1129 q 335 1097 344 1115 q 190 763 289 1014 q 115 722 178 750 q 35 696 57 696 q 25 701 25 696 q 42 758 25 722 q 108 921 71 822 l 169 1085 q 206 1111 175 1103 q 229 1117 214 1114 q 253 1122 244 1119 q 328 1144 311 1144 l 335 1144 q 340 1143 338 1143 q 344 1129 344 1139 "},"":{"ha":597,"x_min":21,"x_max":578,"o":"m 578 222 q 504 58 578 203 l 415 -112 l 414 -115 q 411 -122 413 -118 q 408 -132 410 -126 q 402 -147 406 -137 q 396 -164 399 -156 q 369 -211 386 -197 q 292 -242 356 -224 q 214 -261 225 -261 q 204 -253 204 -261 q 221 -204 204 -236 q 394 157 249 -151 q 436 190 394 178 q 578 222 553 224 m 383 206 q 296 19 354 138 l 188 -203 l 183 -207 q 21 -258 63 -258 q 43 -197 21 -237 q 144 26 63 -164 q 217 174 176 101 q 365 215 322 215 q 380 213 375 215 q 383 206 385 211 "},"":{"ha":651,"x_min":6,"x_max":646,"o":"m 646 633 l 547 531 q 346 617 460 610 q 438 419 347 499 q 344 -229 344 213 l 310 -229 q 293 100 303 -3 q 218 419 275 279 q 310 615 303 497 q 106 529 208 614 l 6 635 l 107 736 q 310 650 201 660 q 283 783 304 724 q 219 904 264 836 l 328 1006 l 438 901 q 344 650 351 803 q 547 736 460 661 l 646 633 "},"":{"ha":904,"x_min":11,"x_max":897,"o":"m 897 660 q 854 593 897 649 q 797 526 814 538 l 703 518 l 699 514 l 694 194 q 771 143 694 178 q 849 88 849 107 q 847 83 849 85 q 728 -37 742 -37 l 557 36 q 467 90 467 76 q 489 135 467 108 q 513 167 513 163 l 513 514 l 508 518 q 346 522 392 522 l 314 522 l 303 514 l 303 -218 q 276 -235 283 -229 q 119 -300 143 -300 l 119 -239 l 115 -231 l 114 -229 q 118 -196 114 -222 q 122 -161 122 -169 l 119 526 q 11 535 108 535 l 11 539 q 64 614 11 544 q 122 701 117 683 q 124 725 124 704 q 121 781 124 736 q 118 836 118 825 q 135 863 118 854 q 297 944 219 903 l 350 999 q 404 1040 389 1040 q 699 908 424 1040 q 703 896 703 903 q 700 808 703 886 q 699 722 699 771 q 703 676 699 683 l 707 669 l 893 669 q 897 660 897 667 m 513 672 l 513 800 q 413 857 492 821 q 306 892 338 892 q 296 764 296 847 q 301 681 296 693 l 310 672 l 513 672 "},"":{"ha":458,"x_min":35,"x_max":422,"o":"m 365 322 q 229 265 308 265 q 90 321 146 265 q 35 460 35 376 q 90 597 35 542 q 229 654 147 654 q 365 597 308 654 q 422 460 422 540 q 394 351 422 379 q 365 322 365 322 "},"":{"ha":953,"x_min":39,"x_max":913,"o":"m 913 101 q 783 -11 789 -11 l 656 122 l 656 133 q 719 197 667 147 q 783 246 772 246 q 851 182 792 246 q 913 101 913 117 m 604 101 q 475 -11 481 -11 l 347 122 l 347 133 q 411 197 358 147 q 475 246 464 246 q 543 182 483 246 q 604 101 604 117 m 296 101 q 167 -11 172 -11 l 39 122 l 39 133 q 103 197 50 147 q 167 246 156 246 q 235 182 175 246 q 296 101 296 117 "},"":{"ha":1061,"x_min":8,"x_max":1053,"o":"m 1053 688 q 1018 617 1053 672 q 983 564 986 565 q 922 556 972 556 l 897 556 q 872 554 886 554 q 597 557 842 554 q 322 560 353 560 l 321 560 l 315 556 q 311 -178 311 311 l 307 -215 q 228 -246 294 -228 q 147 -279 163 -264 l 144 -279 q 125 -203 125 -279 l 125 50 q 126 283 125 179 q 129 518 129 492 q 117 557 129 557 l 8 557 q 39 624 8 581 q 88 686 72 665 q 132 707 96 690 l 132 899 q 307 996 132 928 q 368 1051 342 1031 q 431 1089 417 1092 q 494 1042 449 1074 l 558 1003 q 608 950 608 969 q 604 928 608 933 q 554 878 589 907 q 499 831 506 839 l 500 831 l 492 829 q 407 881 476 829 q 325 933 338 933 q 321 932 322 933 q 315 715 315 906 l 321 711 l 1032 707 q 1053 688 1053 699 "},"":{"ha":261,"x_min":15,"x_max":231,"o":"m 231 63 l 211 40 q 15 388 15 181 q 211 735 15 593 l 231 715 q 113 389 113 593 q 231 63 113 185 "},"":{"ha":261,"x_min":29,"x_max":244,"o":"m 244 388 q 49 40 244 181 l 29 63 q 146 389 146 188 q 29 715 146 594 l 49 735 q 244 388 244 593 "},"":{"ha":714,"x_min":3,"x_max":711,"o":"m 711 946 l 90 -46 l 3 -46 l 621 946 l 711 946 "},"":{"ha":1406,"x_min":39,"x_max":1361,"o":"m 1361 485 l 1090 485 l 1090 510 q 1155 528 1139 510 q 1171 597 1171 546 l 1171 932 l 963 485 l 940 485 l 731 926 l 731 599 q 746 524 731 539 q 818 510 760 510 l 818 485 l 610 485 l 610 510 q 673 527 658 510 q 688 599 688 544 l 688 915 q 676 986 688 971 q 610 1008 663 1008 l 610 1033 l 804 1033 l 990 644 l 1171 1033 l 1361 1033 l 1361 1008 q 1296 986 1310 1006 q 1285 917 1285 971 l 1285 599 q 1299 527 1285 543 q 1361 510 1313 511 l 1361 485 m 563 897 l 540 897 q 474 983 529 965 q 357 993 444 993 l 357 599 q 368 532 357 547 q 429 510 382 511 l 429 485 l 175 485 l 175 510 q 233 533 221 514 q 243 599 243 547 l 243 993 l 190 993 q 104 974 132 993 q 61 897 71 951 l 39 897 l 53 1033 l 549 1033 l 563 897 "},"":{"ha":694,"x_min":26,"x_max":661,"o":"m 661 626 q 568 215 661 403 q 257 -21 453 -21 q 89 40 151 -21 q 26 207 26 101 q 135 489 26 364 q 403 618 250 618 q 615 488 551 618 q 624 614 624 564 q 564 797 624 729 q 389 871 501 871 q 183 763 258 871 l 153 763 q 411 968 250 968 q 608 857 543 968 q 661 626 661 767 m 604 428 q 408 581 550 581 q 206 436 283 581 q 142 179 142 318 q 174 67 142 111 q 275 18 210 18 q 496 167 397 18 q 604 428 571 282 "},"":{"ha":1154,"x_min":35,"x_max":1119,"o":"m 1119 -139 l 713 -139 l 713 -112 q 811 -96 783 -112 q 847 -7 847 -75 l 847 979 l 306 979 l 306 -7 q 342 -96 306 -72 q 440 -112 369 -112 l 440 -139 l 35 -139 l 35 -112 q 133 -96 107 -112 q 169 -7 169 -72 l 169 900 q 133 989 169 965 q 35 1006 106 1006 l 35 1032 l 1119 1032 l 1119 1006 q 1021 990 1047 1006 q 985 900 985 967 l 985 -7 q 1021 -96 985 -72 q 1119 -112 1047 -112 l 1119 -139 "},"":{"ha":1019,"x_min":40,"x_max":976,"o":"m 976 143 l 933 -139 l 40 -139 l 40 -114 l 494 451 l 40 1007 l 40 1032 l 910 1032 l 928 803 l 900 803 q 731 978 881 978 l 228 978 l 610 510 l 182 -19 l 739 -19 q 878 21 829 -19 q 950 149 928 61 l 976 143 "},"":{"ha":735,"x_min":0,"x_max":707,"o":"m 707 1272 l 494 -53 l 157 642 l 22 579 l 0 624 l 204 726 l 481 167 l 657 1272 l 707 1272 "},"":{"ha":999,"x_min":36,"x_max":957,"o":"m 957 358 q 894 164 957 250 q 719 72 825 72 q 581 138 643 72 q 490 268 547 172 q 269 108 410 108 q 100 181 164 108 q 36 360 36 253 q 90 531 36 458 q 244 610 149 610 q 367 564 317 610 q 444 454 404 529 q 538 594 488 551 q 696 643 597 643 q 885 560 811 643 q 957 358 957 479 m 918 358 q 867 514 918 446 q 726 589 811 589 q 582 490 639 589 q 510 315 568 465 q 722 136 593 136 q 868 203 814 136 q 918 358 918 264 m 425 401 q 243 547 361 547 q 120 494 167 547 q 74 361 74 442 q 113 226 74 282 q 231 163 156 163 q 363 247 311 163 q 425 401 388 286 "},"":{"ha":400,"x_min":10,"x_max":390,"o":"m 373 1144 q 328 1124 356 1124 q 283 1143 310 1124 q 249 1163 257 1163 q 221 1118 221 1163 q 228 1019 221 1106 q 253 610 254 719 l 253 569 l 243 213 q 221 -6 239 64 q 89 -150 185 -150 q 32 -126 54 -150 q 10 -68 10 -103 q 71 0 10 0 q 117 -21 94 0 q 150 -43 140 -43 q 178 -1 178 -43 q 171 79 178 7 q 146 567 144 338 l 146 610 l 157 1006 q 186 1172 158 1106 q 306 1268 225 1268 q 364 1246 338 1268 q 390 1194 390 1224 q 382 1155 390 1165 q 373 1144 373 1144 "},"":{"ha":838,"x_min":44,"x_max":793,"o":"m 793 746 q 746 586 790 647 q 601 513 693 513 q 394 574 532 513 q 204 635 257 635 q 89 513 111 635 l 44 513 q 229 746 58 746 q 446 685 304 746 q 632 624 588 624 q 750 746 736 624 l 793 746 m 793 400 q 747 239 792 304 q 603 167 696 167 q 392 226 529 167 q 204 288 253 288 q 89 167 110 288 l 44 167 q 229 400 58 400 q 444 338 306 400 q 632 276 588 276 q 750 400 735 276 l 793 400 "},"":{"ha":801,"x_min":11,"x_max":763,"o":"m 763 225 l 11 539 l 11 651 l 763 965 l 763 831 l 182 596 l 763 361 l 763 225 m 763 -51 l 11 -51 l 11 75 l 763 75 l 763 -51 "},"":{"ha":801,"x_min":39,"x_max":790,"o":"m 790 539 l 39 225 l 39 360 l 618 594 l 39 829 l 39 965 l 790 651 l 790 539 m 790 -51 l 39 -51 l 39 75 l 790 75 l 790 -51 "},"":{"ha":636,"x_min":15,"x_max":621,"o":"m 621 507 l 317 -29 l 15 507 l 317 1026 l 621 507 m 517 507 l 317 847 l 119 507 l 317 151 l 517 507 "},"":{"ha":2057,"x_min":50,"x_max":2007,"o":"m 2007 -54 l 50 -54 l 50 1115 l 2007 1115 l 2007 -54 m 1972 783 q 1946 854 1972 825 q 1882 883 1919 883 l 1675 883 q 1624 932 1624 883 l 1624 1115 l 1544 1115 l 1544 932 q 1706 810 1544 810 q 1771 813 1713 810 q 1838 815 1829 815 q 1896 789 1896 815 q 1839 760 1896 760 q 1771 763 1832 760 q 1704 767 1728 767 q 1544 633 1544 767 l 1544 183 q 1644 64 1544 88 l 1644 142 q 1618 201 1618 158 l 1618 621 q 1667 685 1618 685 l 1871 685 q 1942 714 1911 685 q 1972 783 1972 743 m 1432 190 l 1432 321 q 1395 410 1432 378 q 1299 443 1358 443 l 957 443 q 899 494 899 443 l 899 628 q 957 688 899 688 l 1296 688 q 1356 658 1329 688 l 1426 658 q 1301 764 1408 764 l 958 764 q 860 724 897 764 q 822 621 822 685 l 822 497 q 858 405 822 440 q 950 369 893 369 l 1299 369 q 1363 307 1363 369 l 1363 201 q 1276 138 1363 138 l 928 138 q 897 168 897 138 q 925 193 897 193 l 1301 193 l 1301 267 l 913 267 q 847 238 872 267 q 822 165 822 208 q 850 95 822 124 q 919 67 878 67 l 1313 67 q 1399 101 1367 67 q 1432 190 1432 136 m 726 1115 l 649 1115 l 651 165 q 642 146 651 156 q 625 136 633 136 q 599 165 599 136 l 599 375 q 556 479 599 436 l 307 726 q 235 753 281 753 q 153 727 186 753 q 119 658 119 701 l 119 199 q 243 64 119 64 l 357 64 q 464 165 446 64 l 390 165 q 356 136 374 144 l 243 136 q 193 196 193 136 l 193 628 q 229 679 193 679 q 267 661 249 679 l 519 401 q 522 167 522 301 q 550 89 522 119 q 622 58 578 58 q 694 90 664 58 q 725 163 725 121 l 726 1115 "},"":{"ha":869,"x_min":8,"x_max":854,"o":"m 854 122 q 807 51 854 103 q 742 0 760 0 q 646 49 724 0 q 569 110 569 96 q 584 131 569 114 q 599 153 599 147 l 599 539 l 294 539 l 290 535 q 286 142 286 403 q 283 -36 286 122 q 282 -214 282 -115 q 197 -261 260 -231 q 115 -297 125 -297 l 104 -285 q 103 -201 103 -279 q 106 64 103 -172 q 108 331 108 300 q 107 535 108 529 l 104 539 q 78 540 96 539 q 50 542 60 542 q 8 560 8 546 q 96 679 8 563 q 110 700 97 688 l 110 888 q 258 961 222 942 q 381 1060 292 983 l 388 1060 q 489 1001 399 1060 q 588 928 579 943 q 685 1004 676 1004 q 756 949 696 1004 q 817 888 817 892 q 781 844 817 876 q 689 772 739 808 l 681 772 q 611 828 647 797 q 556 888 557 875 l 485 815 q 464 807 475 814 l 461 807 q 375 860 444 807 q 299 911 307 913 l 294 907 q 289 851 289 889 q 293 765 289 836 q 299 683 294 688 l 301 676 l 624 676 q 689 722 682 722 q 749 675 701 722 q 797 618 797 629 q 781 586 797 597 l 781 182 q 824 156 804 168 q 854 122 854 138 "},"":{"ha":885,"x_min":8,"x_max":874,"o":"m 831 61 q 769 1 797 24 q 758 0 764 1 q 757 0 753 0 q 744 1 749 0 q 635 72 731 14 q 550 133 550 124 q 567 167 550 144 q 568 208 567 192 q 569 226 568 217 q 570 240 569 235 q 571 249 571 246 q 575 678 575 375 l 575 907 l 485 815 l 464 807 l 461 807 q 375 860 444 807 q 299 911 306 913 l 294 907 q 289 851 289 889 q 293 765 289 836 q 299 683 294 688 l 301 676 l 521 676 q 526 663 526 676 q 499 601 526 649 q 456 543 474 558 q 426 535 444 535 q 360 536 389 535 q 294 539 301 539 l 290 535 q 286 142 286 403 q 283 -36 286 122 q 282 -214 282 -115 q 196 -261 263 -228 q 115 -297 126 -297 l 104 -285 q 103 -201 103 -279 q 106 64 103 -172 q 108 331 108 300 q 107 535 108 529 l 104 539 q 78 540 96 539 q 50 542 60 542 q 8 560 8 546 q 96 679 8 563 q 110 700 97 688 l 110 888 l 278 968 l 381 1060 l 388 1060 q 479 1007 397 1060 q 575 942 554 961 l 575 976 q 656 1019 585 989 q 744 1051 731 1051 q 757 1047 750 1051 l 757 933 q 756 703 757 804 q 753 474 753 494 l 753 229 q 821 181 758 221 q 874 128 874 147 q 831 61 874 108 "}}}
